<?xml version="1.0" encoding="UTF-8" standalone="no"?>
<!DOCTYPE svg PUBLIC "-//W3C//DTD SVG 1.1//EN"
 "http://www.w3.org/Graphics/SVG/1.1/DTD/svg11.dtd">
<!-- Generated by graphviz version 2.36.0 (20140111.2315)
 -->
<!-- Title: serialization_builder_dsl Pages: 1 -->
<svg width="107pt" height="188pt"
 viewBox="0.00 0.00 106.64 188.00" xmlns="http://www.w3.org/2000/svg" xmlns:xlink="http://www.w3.org/1999/xlink">
<g id="graph0" class="graph" transform="scale(1 1) rotate(0) translate(4 184)">
<title>serialization_builder_dsl</title>
<polygon fill="white" stroke="none" points="-4,4 -4,-184 102.644,-184 102.644,4 -4,4"/>
<!-- formats -->
<g id="node1" class="node"><title>formats</title>
<ellipse fill="none" stroke="black" cx="40" cy="-162" rx="38.0212" ry="18"/>
<text text-anchor="middle" x="40" y="-158.3" font-family="Times,serif" font-size="14.00">formats</text>
</g>
<!-- formats&#45;&gt;formats -->
<g id="edge1" class="edge"><title>formats&#45;&gt;formats</title>
<path fill="none" stroke="black" d="M67.0821,-174.854C82.1367,-177.253 96,-172.969 96,-162 96,-153.602 87.8736,-149.122 77.3079,-148.56"/>
<polygon fill="black" stroke="black" points="76.8656,-145.08 67.0821,-149.146 77.2658,-152.068 76.8656,-145.08"/>
</g>
<!-- type -->
<g id="node2" class="node"><title>type</title>
<ellipse fill="none" stroke="black" cx="40" cy="-90" rx="27" ry="18"/>
<text text-anchor="middle" x="40" y="-86.3" font-family="Times,serif" font-size="14.00">type</text>
</g>
<!-- formats&#45;&gt;type -->
<g id="edge2" class="edge"><title>formats&#45;&gt;type</title>
<path fill="none" stroke="black" d="M34.1218,-144.055C33.2915,-136.231 33.0543,-126.748 33.4102,-117.977"/>
<polygon fill="black" stroke="black" points="36.9164,-118.013 34.1384,-107.789 29.9342,-117.514 36.9164,-118.013"/>
</g>
<!-- type&#45;&gt;formats -->
<g id="edge3" class="edge"><title>type&#45;&gt;formats</title>
<path fill="none" stroke="black" d="M45.8616,-107.789C46.6998,-115.591 46.9449,-125.067 46.5969,-133.848"/>
<polygon fill="black" stroke="black" points="43.0893,-133.834 45.8782,-144.055 50.072,-134.325 43.0893,-133.834"/>
</g>
<!-- type&#45;&gt;type -->
<g id="edge4" class="edge"><title>type&#45;&gt;type</title>
<path fill="none" stroke="black" d="M59.895,-102.432C72.688,-105.675 85,-101.531 85,-90 85,-81.6218 78.5006,-77.1433 70.0395,-76.5644"/>
<polygon fill="black" stroke="black" points="69.5019,-73.1004 59.895,-77.5679 70.191,-80.0665 69.5019,-73.1004"/>
</g>
<!-- member -->
<g id="node3" class="node"><title>member</title>
<ellipse fill="none" stroke="black" cx="40" cy="-18" rx="39.9464" ry="18"/>
<text text-anchor="middle" x="40" y="-14.3" font-family="Times,serif" font-size="14.00">member</text>
</g>
<!-- type&#45;&gt;member -->
<g id="edge5" class="edge"><title>type&#45;&gt;member</title>
<path fill="none" stroke="black" d="M34.1601,-72.411C33.2975,-64.507 33.0481,-54.8518 33.4119,-45.9352"/>
<polygon fill="black" stroke="black" points="36.9033,-46.1791 34.1206,-35.9562 29.9209,-45.6831 36.9033,-46.1791"/>
</g>
<!-- member&#45;&gt;formats -->
<g id="edge6" class="edge"><title>member&#45;&gt;formats</title>
<path fill="none" stroke="black" d="M61.5644,-33.4354C73.5694,-42.8325 87.3913,-56.2537 94,-72 100.192,-86.7533 100.192,-93.2467 94,-108 88.7452,-120.52 78.93,-131.571 69.0938,-140.297"/>
<polygon fill="black" stroke="black" points="66.744,-137.699 61.2877,-146.781 71.2166,-143.084 66.744,-137.699"/>
</g>
<!-- member&#45;&gt;type -->
<g id="edge7" class="edge"><title>member&#45;&gt;type</title>
<path fill="none" stroke="black" d="M45.8794,-35.9562C46.7139,-43.8272 46.9485,-53.3739 46.5831,-62.1869"/>
<polygon fill="black" stroke="black" points="43.0742,-62.1835 45.8399,-72.411 50.0558,-62.6911 43.0742,-62.1835"/>
</g>
<!-- member&#45;&gt;member -->
<g id="edge8" class="edge"><title>member&#45;&gt;member</title>
<path fill="none" stroke="black" d="M68.349,-30.8993C83.8251,-33.1982 98,-28.8984 98,-18 98,-9.57074 89.5205,-5.08884 78.5178,-4.55429"/>
<polygon fill="black" stroke="black" points="78.1467,-1.06908 68.349,-5.10068 78.5224,-8.059 78.1467,-1.06908"/>
</g>
</g>
</svg>
