<?xml version="1.0" encoding="UTF-8" standalone="no"?>
<!DOCTYPE svg PUBLIC "-//W3C//DTD SVG 1.1//EN"
 "http://www.w3.org/Graphics/SVG/1.1/DTD/svg11.dtd">
<!-- Generated by graphviz version 2.40.1 (20161225.0304)
 -->
<!-- Title: formats Pages: 1 -->
<svg width="470pt" height="188pt"
 viewBox="0.00 0.00 470.04 188.00" xmlns="http://www.w3.org/2000/svg" xmlns:xlink="http://www.w3.org/1999/xlink">
<g id="graph0" class="graph" transform="scale(1 1) rotate(0) translate(4 184)">
<title>formats</title>
<polygon fill="#ffffff" stroke="transparent" points="-4,4 -4,-184 466.0375,-184 466.0375,4 -4,4"/>
<!-- defaults -->
<g id="node1" class="node">
<title>defaults</title>
<ellipse fill="none" stroke="#000000" cx="72.1436" cy="-90" rx="72.2875" ry="18"/>
<text text-anchor="middle" x="72.1436" y="-86.3" font-family="Times,serif" font-size="14.00" fill="#000000">formats::defaults</text>
</g>
<!-- coerce -->
<g id="node2" class="node">
<title>coerce</title>
<ellipse fill="none" stroke="#000000" cx="393.1436" cy="-90" rx="68.7879" ry="18"/>
<text text-anchor="middle" x="393.1436" y="-86.3" font-family="Times,serif" font-size="14.00" fill="#000000">formats::coerce</text>
</g>
<!-- lib -->
<g id="node3" class="node">
<title>lib</title>
<ellipse fill="none" stroke="#000000" cx="234.1436" cy="-18" rx="70.3881" ry="18"/>
<text text-anchor="middle" x="234.1436" y="-14.3" font-family="Times,serif" font-size="14.00" fill="#000000">some_3rd_party</text>
</g>
<!-- my_app -->
<g id="node4" class="node">
<title>my_app</title>
<ellipse fill="none" stroke="#000000" cx="234.1436" cy="-90" rx="72.2875" ry="18"/>
<text text-anchor="middle" x="234.1436" y="-86.3" font-family="Times,serif" font-size="14.00" fill="#000000">my_app_formats</text>
</g>
<!-- my_app&#45;&gt;lib -->
<g id="edge1" class="edge">
<title>my_app&#45;&gt;lib</title>
<path fill="none" stroke="#000000" d="M234.1436,-71.8314C234.1436,-64.131 234.1436,-54.9743 234.1436,-46.4166"/>
<polygon fill="#000000" stroke="#000000" points="237.6437,-46.4132 234.1436,-36.4133 230.6437,-46.4133 237.6437,-46.4132"/>
</g>
<!-- db -->
<g id="node5" class="node">
<title>db</title>
<ellipse fill="none" stroke="#000000" cx="130.1436" cy="-162" rx="103.1819" ry="18"/>
<text text-anchor="middle" x="130.1436" y="-158.3" font-family="Times,serif" font-size="14.00" fill="#000000">my_app_database_loader</text>
</g>
<!-- db&#45;&gt;defaults -->
<g id="edge2" class="edge">
<title>db&#45;&gt;defaults</title>
<path fill="none" stroke="#000000" d="M115.5077,-143.8314C108.6555,-135.3251 100.3718,-125.0419 92.8883,-115.752"/>
<polygon fill="#000000" stroke="#000000" points="95.5728,-113.5053 86.5738,-107.9134 90.1215,-117.8966 95.5728,-113.5053"/>
</g>
<!-- db&#45;&gt;my_app -->
<g id="edge3" class="edge">
<title>db&#45;&gt;my_app</title>
<path fill="none" stroke="#000000" d="M155.5849,-144.3868C169.3586,-134.8512 186.5306,-122.9629 201.3039,-112.7352"/>
<polygon fill="#000000" stroke="#000000" points="203.4515,-115.5054 209.6812,-106.9355 199.467,-109.75 203.4515,-115.5054"/>
</g>
<!-- api -->
<g id="node6" class="node">
<title>api</title>
<ellipse fill="none" stroke="#000000" cx="364.1436" cy="-162" rx="83.3857" ry="18"/>
<text text-anchor="middle" x="364.1436" y="-158.3" font-family="Times,serif" font-size="14.00" fill="#000000">my_app_api_loader</text>
</g>
<!-- api&#45;&gt;coerce -->
<g id="edge4" class="edge">
<title>api&#45;&gt;coerce</title>
<path fill="none" stroke="#000000" d="M371.4615,-143.8314C374.68,-135.8406 378.5301,-126.2819 382.0868,-117.4514"/>
<polygon fill="#000000" stroke="#000000" points="385.4389,-118.4969 385.9285,-107.9134 378.9458,-115.8816 385.4389,-118.4969"/>
</g>
<!-- api&#45;&gt;my_app -->
<g id="edge5" class="edge">
<title>api&#45;&gt;my_app</title>
<path fill="none" stroke="#000000" d="M333.6644,-145.1192C315.5241,-135.0723 292.3304,-122.2266 272.8981,-111.464"/>
<polygon fill="#000000" stroke="#000000" points="274.4272,-108.31 263.9835,-106.5267 271.0357,-114.4335 274.4272,-108.31"/>
</g>
</g>
</svg>
