<?xml version="1.0" encoding="UTF-8" standalone="no"?>
<!DOCTYPE svg PUBLIC "-//W3C//DTD SVG 1.1//EN"
 "http://www.w3.org/Graphics/SVG/1.1/DTD/svg11.dtd">
<!-- Generated by graphviz version 2.26.3 (20100126.1600)
 -->
<!-- Title: jsonv Pages: 1 -->
<svg width="434pt" height="256pt"
 viewBox="0.00 0.00 434.00 256.00" xmlns="http://www.w3.org/2000/svg" xmlns:xlink="http://www.w3.org/1999/xlink">
<g id="graph1" class="graph" transform="scale(1 1) rotate(0) translate(4 252)">
<title>jsonv</title>
<polygon fill="white" stroke="white" points="-4,5 -4,-252 431,-252 431,5 -4,5"/>
<text text-anchor="middle" x="213" y="-231.4" font-family="Times Roman,serif" font-size="14.00">Conversions</text>
<!-- str -->
<g id="node1" class="node"><title>str</title>
<ellipse fill="none" stroke="black" cx="75" cy="-203" rx="60.8112" ry="18.3848"/>
<text text-anchor="middle" x="75" y="-199.4" font-family="Times Roman,serif" font-size="14.00">std::string</text>
</g>
<!-- value -->
<g id="node4" class="node"><title>value</title>
<a xlink:href="classjsonv_1_1value.html" target="_top" xlink:title="value">
<ellipse fill="none" stroke="black" cx="180" cy="-111" rx="38.1838" ry="18.3848"/>
<text text-anchor="middle" x="180" y="-107.4" font-family="Times Roman,serif" font-size="14.00">value</text>
</a>
</g>
<!-- str&#45;&gt;value -->
<g id="edge6" class="edge"><title>str&#45;&gt;value</title>
<path fill="none" stroke="black" d="M69.9631,-184.548C67.9538,-173.023 67.6073,-158.443 75,-148 82.3939,-137.555 110.233,-128.016 135.388,-121.24"/>
<polygon fill="black" stroke="black" points="136.409,-124.591 145.21,-118.692 134.651,-117.815 136.409,-124.591"/>
<text text-anchor="middle" x="94" y="-153.4" font-family="Times Roman,serif" font-size="14.00">parse</text>
</g>
<!-- istream -->
<g id="node2" class="node"><title>istream</title>
<ellipse fill="none" stroke="black" cx="223" cy="-203" rx="68.7979" ry="18.3848"/>
<text text-anchor="middle" x="223" y="-199.4" font-family="Times Roman,serif" font-size="14.00">std::istream</text>
</g>
<!-- istream&#45;&gt;value -->
<g id="edge8" class="edge"><title>istream&#45;&gt;value</title>
<path fill="none" stroke="black" d="M216.28,-184.397C212.206,-173.613 206.706,-159.863 201,-148 199.367,-144.605 197.551,-141.095 195.69,-137.649"/>
<polygon fill="black" stroke="black" points="198.684,-135.831 190.753,-128.805 192.571,-139.243 198.684,-135.831"/>
<text text-anchor="middle" x="227" y="-153.4" font-family="Times Roman,serif" font-size="14.00">parse</text>
</g>
<!-- ostream -->
<g id="node3" class="node"><title>ostream</title>
<ellipse fill="none" stroke="black" cx="73" cy="-19" rx="72.832" ry="18.3848"/>
<text text-anchor="middle" x="73" y="-15.4" font-family="Times Roman,serif" font-size="14.00">std::ostream</text>
</g>
<!-- value&#45;&gt;str -->
<g id="edge2" class="edge"><title>value&#45;&gt;str</title>
<path fill="none" stroke="black" d="M160.094,-126.983C152.202,-133.419 143.095,-140.971 135,-148 128.444,-153.693 114.358,-166.593 101.48,-178.469"/>
<polygon fill="black" stroke="black" points="99.0758,-175.926 94.1042,-185.282 103.825,-181.068 99.0758,-175.926"/>
<text text-anchor="middle" x="166" y="-153.4" font-family="Times Roman,serif" font-size="14.00">to_string</text>
</g>
<!-- value&#45;&gt;ostream -->
<g id="edge4" class="edge"><title>value&#45;&gt;ostream</title>
<path fill="none" stroke="black" d="M144.049,-104.914C124.565,-99.8166 101.563,-90.581 87,-74 80.6223,-66.7386 77.0766,-56.9675 75.1289,-47.6758"/>
<polygon fill="black" stroke="black" points="78.5481,-46.8864 73.5433,-37.5482 71.6323,-47.9693 78.5481,-46.8864"/>
<text text-anchor="middle" x="129" y="-61.4" font-family="Times Roman,serif" font-size="14.00">operator&lt;&lt;</text>
</g>
<!-- value&#45;&gt;value -->
<g id="edge10" class="edge"><title>value&#45;&gt;value</title>
<path fill="none" stroke="black" d="M213.9,-119.617C226.074,-119.802 236,-116.93 236,-111 236,-106.831 231.093,-104.173 223.947,-103.027"/>
<polygon fill="black" stroke="black" points="224.103,-99.5297 213.9,-102.383 223.655,-106.515 224.103,-99.5297"/>
<text text-anchor="middle" x="304" y="-107.4" font-family="Times Roman,serif" font-size="14.00">map, merge, diff, ...</text>
</g>
<!-- class -->
<g id="node5" class="node"><title>class</title>
<ellipse fill="none" stroke="black" cx="239" cy="-19" rx="61.0181" ry="18.3848"/>
<text text-anchor="middle" x="239" y="-15.4" font-family="Times Roman,serif" font-size="14.00">C++ class</text>
</g>
<!-- value&#45;&gt;class -->
<g id="edge12" class="edge"><title>value&#45;&gt;class</title>
<path fill="none" stroke="black" d="M176.141,-92.5301C174.766,-81.2776 174.84,-66.9986 181,-56 184.451,-49.8388 189.402,-44.5499 194.975,-40.059"/>
<polygon fill="black" stroke="black" points="197.341,-42.6731 203.485,-34.0418 193.299,-36.9577 197.341,-42.6731"/>
<text text-anchor="middle" x="206" y="-61.4" font-family="Times Roman,serif" font-size="14.00">extract</text>
</g>
<!-- class&#45;&gt;value -->
<g id="edge14" class="edge"><title>class&#45;&gt;value</title>
<path fill="none" stroke="black" d="M239.826,-37.5397C239.511,-48.8183 237.59,-63.1005 231,-74 226.861,-80.8452 220.926,-86.7987 214.558,-91.8115"/>
<polygon fill="black" stroke="black" points="212.473,-88.999 206.363,-97.6541 216.537,-94.6988 212.473,-88.999"/>
<text text-anchor="middle" x="262" y="-61.4" font-family="Times Roman,serif" font-size="14.00">to_json</text>
</g>
<!-- dsl -->
<g id="node6" class="node"><title>dsl</title>
<ellipse fill="none" stroke="black" cx="368" cy="-203" rx="58.1882" ry="18.3848"/>
<text text-anchor="middle" x="368" y="-199.4" font-family="Times Roman,serif" font-size="14.00">C++ DSL</text>
</g>
<!-- dsl&#45;&gt;value -->
<g id="edge16" class="edge"><title>dsl&#45;&gt;value</title>
<path fill="none" stroke="black" d="M336.108,-187.393C302.881,-171.133 250.912,-145.701 216.174,-128.702"/>
<polygon fill="black" stroke="black" points="217.383,-125.397 206.862,-124.145 214.306,-131.685 217.383,-125.397"/>
<text text-anchor="middle" x="357" y="-153.4" font-family="Times Roman,serif" font-size="14.00">value, object, array</text>
</g>
</g>
</svg>
