<?xml version="1.0" encoding="UTF-8" standalone="no"?>
<!DOCTYPE svg PUBLIC "-//W3C//DTD SVG 1.1//EN"
 "http://www.w3.org/Graphics/SVG/1.1/DTD/svg11.dtd">
<!-- Generated by graphviz version 2.36.0 (20140111.2315)
 -->
<!-- Title: jsonv Pages: 1 -->
<svg width="344pt" height="243pt"
 viewBox="0.00 0.00 344.00 243.00" xmlns="http://www.w3.org/2000/svg" xmlns:xlink="http://www.w3.org/1999/xlink">
<g id="graph0" class="graph" transform="scale(1 1) rotate(0) translate(4 239)">
<title>jsonv</title>
<polygon fill="white" stroke="none" points="-4,4 -4,-239 340,-239 340,4 -4,4"/>
<text text-anchor="middle" x="168" y="-219.8" font-family="Times,serif" font-size="14.00">Conversions</text>
<!-- str -->
<g id="node1" class="node"><title>str</title>
<ellipse fill="none" stroke="black" cx="54" cy="-194" rx="46.2191" ry="18"/>
<text text-anchor="middle" x="54" y="-190.3" font-family="Times,serif" font-size="14.00">std::string</text>
</g>
<!-- value -->
<g id="node4" class="node"><title>value</title>
<g id="a_node4"><a xlink:href="classjsonv_1_1value.html" target="_top" xlink:title="value">
<ellipse fill="none" stroke="black" cx="138" cy="-106" rx="29.3479" ry="18"/>
<text text-anchor="middle" x="138" y="-102.3" font-family="Times,serif" font-size="14.00">value</text>
</a>
</g>
</g>
<!-- str&#45;&gt;value -->
<g id="edge3" class="edge"><title>str&#45;&gt;value</title>
<g id="a_edge3"><a xlink:href="" target="_top" xlink:title="parse">
<path fill="none" stroke="black" d="M49.0361,-176.01C46.9803,-165.371 46.3968,-151.86 53,-142 63.3926,-126.481 82.0473,-117.837 99.238,-113.025"/>
<polygon fill="black" stroke="black" points="100.233,-116.385 109.117,-110.611 98.572,-109.585 100.233,-116.385"/>
</a>
</g>
<g id="a_edge3&#45;label"><a xlink:href="" target="_top" xlink:title="parse">
<text text-anchor="middle" x="67.5" y="-146.3" font-family="Times,serif" font-size="14.00">parse</text>
</a>
</g>
</g>
<!-- istream -->
<g id="node2" class="node"><title>istream</title>
<ellipse fill="none" stroke="black" cx="174" cy="-194" rx="51.4931" ry="18"/>
<text text-anchor="middle" x="174" y="-190.3" font-family="Times,serif" font-size="14.00">std::istream</text>
</g>
<!-- istream&#45;&gt;value -->
<g id="edge4" class="edge"><title>istream&#45;&gt;value</title>
<g id="a_edge4"><a xlink:href="" target="_top" xlink:title="parse">
<path fill="none" stroke="black" d="M166.888,-176.009C161.776,-163.798 154.788,-147.105 148.965,-133.195"/>
<polygon fill="black" stroke="black" points="152.065,-131.536 144.975,-123.663 145.608,-134.239 152.065,-131.536"/>
</a>
</g>
<g id="a_edge4&#45;label"><a xlink:href="" target="_top" xlink:title="parse">
<text text-anchor="middle" x="174.5" y="-146.3" font-family="Times,serif" font-size="14.00">parse</text>
</a>
</g>
</g>
<!-- ostream -->
<g id="node3" class="node"><title>ostream</title>
<ellipse fill="none" stroke="black" cx="53" cy="-18" rx="53.4184" ry="18"/>
<text text-anchor="middle" x="53" y="-14.3" font-family="Times,serif" font-size="14.00">std::ostream</text>
</g>
<!-- value&#45;&gt;str -->
<g id="edge1" class="edge"><title>value&#45;&gt;str</title>
<g id="a_edge1"><a xlink:href="" target="_top" xlink:title="to_string">
<path fill="none" stroke="black" d="M121.79,-121.324C114.932,-127.539 106.94,-134.987 100,-142 91.5236,-150.565 82.5708,-160.316 74.8387,-168.981"/>
<polygon fill="black" stroke="black" points="72.1316,-166.759 68.1297,-176.569 77.3757,-171.396 72.1316,-166.759"/>
</a>
</g>
<g id="a_edge1&#45;label"><a xlink:href="" target="_top" xlink:title="to_string">
<text text-anchor="middle" x="124.5" y="-146.3" font-family="Times,serif" font-size="14.00">to_string</text>
</a>
</g>
</g>
<!-- value&#45;&gt;ostream -->
<g id="edge2" class="edge"><title>value&#45;&gt;ostream</title>
<path fill="none" stroke="black" d="M111.834,-97.3402C97.3614,-91.8703 80.1114,-83.1203 69,-70 63.2868,-63.2539 59.61,-54.466 57.2451,-46.0903"/>
<polygon fill="black" stroke="black" points="60.6304,-45.1944 54.9626,-36.2431 53.8112,-46.7752 60.6304,-45.1944"/>
<text text-anchor="middle" x="100" y="-58.3" font-family="Times,serif" font-size="14.00">operator&lt;&lt;</text>
</g>
<!-- value&#45;&gt;value -->
<g id="edge5" class="edge"><title>value&#45;&gt;value</title>
<path fill="none" stroke="black" d="M164.574,-114.177C175.629,-114.741 185,-112.016 185,-106 185,-101.958 180.77,-99.4016 174.641,-98.33"/>
<polygon fill="black" stroke="black" points="174.738,-94.8305 164.574,-97.8225 174.385,-101.822 174.738,-94.8305"/>
<text text-anchor="middle" x="241" y="-102.3" font-family="Times,serif" font-size="14.00">map, merge, diff, ...</text>
</g>
<!-- class -->
<g id="node5" class="node"><title>class</title>
<ellipse fill="none" stroke="black" cx="185" cy="-18" rx="46.1964" ry="18"/>
<text text-anchor="middle" x="185" y="-14.3" font-family="Times,serif" font-size="14.00">C++ class</text>
</g>
<!-- value&#45;&gt;class -->
<g id="edge6" class="edge"><title>value&#45;&gt;class</title>
<g id="a_edge6"><a xlink:href="" target="_top" xlink:title="extract">
<path fill="none" stroke="black" d="M134.75,-88.0307C133.606,-77.6559 133.706,-64.4223 139,-54 141.795,-48.4977 145.902,-43.6191 150.529,-39.3821"/>
<polygon fill="black" stroke="black" points="153.052,-41.8451 158.667,-32.8605 148.675,-36.3825 153.052,-41.8451"/>
</a>
</g>
<g id="a_edge6&#45;label"><a xlink:href="" target="_top" xlink:title="extract">
<text text-anchor="middle" x="157.5" y="-58.3" font-family="Times,serif" font-size="14.00">extract</text>
</a>
</g>
</g>
<!-- class&#45;&gt;value -->
<g id="edge7" class="edge"><title>class&#45;&gt;value</title>
<g id="a_edge7"><a xlink:href="" target="_top" xlink:title="to_json">
<path fill="none" stroke="black" d="M184.682,-36.4502C183.843,-46.7545 181.61,-59.7458 176,-70 173.022,-75.4442 168.878,-80.5021 164.416,-84.9849"/>
<polygon fill="black" stroke="black" points="161.798,-82.6348 156.755,-91.9529 166.508,-87.813 161.798,-82.6348"/>
</a>
</g>
<g id="a_edge7&#45;label"><a xlink:href="" target="_top" xlink:title="to_json">
<text text-anchor="middle" x="202" y="-58.3" font-family="Times,serif" font-size="14.00">to_json</text>
</a>
</g>
</g>
<!-- dsl -->
<g id="node6" class="node"><title>dsl</title>
<ellipse fill="none" stroke="black" cx="290" cy="-194" rx="46.2191" ry="18"/>
<text text-anchor="middle" x="290" y="-190.3" font-family="Times,serif" font-size="14.00">C++ DSL</text>
</g>
<!-- dsl&#45;&gt;value -->
<g id="edge8" class="edge"><title>dsl&#45;&gt;value</title>
<path fill="none" stroke="black" d="M264.9,-178.799C238.385,-163.797 196.573,-140.14 168.255,-124.118"/>
<polygon fill="black" stroke="black" points="169.637,-120.879 159.21,-119 166.19,-126.971 169.637,-120.879"/>
<text text-anchor="middle" x="281" y="-146.3" font-family="Times,serif" font-size="14.00">value, object, array</text>
</g>
</g>
</svg>
