<?xml version="1.0" encoding="UTF-8" standalone="no"?>
<!DOCTYPE svg PUBLIC "-//W3C//DTD SVG 1.1//EN"
 "http://www.w3.org/Graphics/SVG/1.1/DTD/svg11.dtd">
<!-- Generated by graphviz version 2.26.3 (20100126.1600)
 -->
<!-- Title: jsonv Pages: 1 -->
<svg width="322pt" height="256pt"
 viewBox="0.00 0.00 322.00 256.00" xmlns="http://www.w3.org/2000/svg" xmlns:xlink="http://www.w3.org/1999/xlink">
<g id="graph1" class="graph" transform="scale(1 1) rotate(0) translate(4 252)">
<title>jsonv</title>
<polygon fill="white" stroke="white" points="-4,5 -4,-252 319,-252 319,5 -4,5"/>
<text text-anchor="middle" x="157" y="-231.4" font-family="Times Roman,serif" font-size="14.00">Conversions</text>
<!-- str -->
<g id="node1" class="node"><title>str</title>
<ellipse fill="none" stroke="black" cx="61" cy="-203" rx="60.8112" ry="18.3848"/>
<text text-anchor="middle" x="61" y="-199.4" font-family="Times Roman,serif" font-size="14.00">std::string</text>
</g>
<!-- value -->
<g id="node4" class="node"><title>value</title>
<a xlink:href="classjsonv_1_1value.html" target="_top" xlink:title="value">
<ellipse fill="none" stroke="black" cx="122" cy="-111" rx="38.1838" ry="18.3848"/>
<text text-anchor="middle" x="122" y="-107.4" font-family="Times Roman,serif" font-size="14.00">value</text>
</a>
</g>
<!-- str&#45;&gt;value -->
<g id="edge6" class="edge"><title>str&#45;&gt;value</title>
<path fill="none" stroke="black" d="M55.1302,-184.484C52.6865,-173.215 51.6917,-158.934 58,-148 63.3466,-138.733 71.9972,-131.578 81.2331,-126.142"/>
<polygon fill="black" stroke="black" points="82.9527,-129.193 90.1789,-121.445 79.6981,-122.995 82.9527,-129.193"/>
<text text-anchor="middle" x="77" y="-153.4" font-family="Times Roman,serif" font-size="14.00">parse</text>
</g>
<!-- istream -->
<g id="node2" class="node"><title>istream</title>
<ellipse fill="none" stroke="black" cx="209" cy="-203" rx="68.7979" ry="18.3848"/>
<text text-anchor="middle" x="209" y="-199.4" font-family="Times Roman,serif" font-size="14.00">std::istream</text>
</g>
<!-- istream&#45;&gt;value -->
<g id="edge8" class="edge"><title>istream&#45;&gt;value</title>
<path fill="none" stroke="black" d="M200.497,-184.578C194.663,-173.207 186.152,-158.783 176,-148 170.009,-141.636 162.744,-135.757 155.511,-130.645"/>
<polygon fill="black" stroke="black" points="157.369,-127.677 147.114,-125.014 153.47,-133.49 157.369,-127.677"/>
<text text-anchor="middle" x="207" y="-153.4" font-family="Times Roman,serif" font-size="14.00">parse</text>
</g>
<!-- ostream -->
<g id="node3" class="node"><title>ostream</title>
<ellipse fill="none" stroke="black" cx="122" cy="-19" rx="72.832" ry="18.3848"/>
<text text-anchor="middle" x="122" y="-15.4" font-family="Times Roman,serif" font-size="14.00">std::ostream</text>
</g>
<!-- value&#45;&gt;str -->
<g id="edge2" class="edge"><title>value&#45;&gt;str</title>
<path fill="none" stroke="black" d="M116.797,-129.559C113.147,-140.711 107.564,-154.851 100,-166 97.0624,-170.33 93.5411,-174.538 89.8325,-178.47"/>
<polygon fill="black" stroke="black" points="87.2223,-176.129 82.5745,-185.649 92.1452,-181.105 87.2223,-176.129"/>
<text text-anchor="middle" x="141" y="-153.4" font-family="Times Roman,serif" font-size="14.00">to_string</text>
</g>
<!-- value&#45;&gt;ostream -->
<g id="edge4" class="edge"><title>value&#45;&gt;ostream</title>
<path fill="none" stroke="black" d="M122,-92.3824C122,-79.5383 122,-62.2161 122,-47.6269"/>
<polygon fill="black" stroke="black" points="125.5,-47.5898 122,-37.5899 118.5,-47.5899 125.5,-47.5898"/>
<text text-anchor="middle" x="164" y="-61.4" font-family="Times Roman,serif" font-size="14.00">operator&lt;&lt;</text>
</g>
<!-- value&#45;&gt;value -->
<g id="edge10" class="edge"><title>value&#45;&gt;value</title>
<path fill="none" stroke="black" d="M155.9,-119.617C168.074,-119.802 178,-116.93 178,-111 178,-106.831 173.093,-104.173 165.947,-103.027"/>
<polygon fill="black" stroke="black" points="166.103,-99.5297 155.9,-102.383 165.655,-106.515 166.103,-99.5297"/>
<text text-anchor="middle" x="246" y="-107.4" font-family="Times Roman,serif" font-size="14.00">map, merge, diff, ...</text>
</g>
</g>
</svg>
