<?xml version="1.0" encoding="UTF-8" standalone="no"?>
<!DOCTYPE svg PUBLIC "-//W3C//DTD SVG 1.1//EN"
 "http://www.w3.org/Graphics/SVG/1.1/DTD/svg11.dtd">
<!-- Generated by graphviz version 2.38.0 (20140413.2041)
 -->
<!-- Title: serialization_builder_dsl Pages: 1 -->
<svg width="107pt" height="188pt"
 viewBox="0.00 0.00 106.94 188.00" xmlns="http://www.w3.org/2000/svg" xmlns:xlink="http://www.w3.org/1999/xlink">
<g id="graph0" class="graph" transform="scale(1 1) rotate(0) translate(4 184)">
<title>serialization_builder_dsl</title>
<polygon fill="white" stroke="none" points="-4,4 -4,-184 102.94,-184 102.94,4 -4,4"/>
<!-- formats -->
<g id="node1" class="node"><title>formats</title>
<ellipse fill="none" stroke="black" cx="40.2964" cy="-162" rx="38.1938" ry="18"/>
<text text-anchor="middle" x="40.2964" y="-158.3" font-family="Times,serif" font-size="14.00">formats</text>
</g>
<!-- formats&#45;&gt;formats -->
<g id="edge1" class="edge"><title>formats&#45;&gt;formats</title>
<path fill="none" stroke="black" d="M67.2547,-174.807C82.5145,-177.308 96.643,-173.039 96.643,-162 96.643,-153.462 88.1913,-148.974 77.3012,-148.536"/>
<polygon fill="black" stroke="black" points="77.0048,-145.047 67.2547,-149.193 77.4619,-152.032 77.0048,-145.047"/>
</g>
<!-- type -->
<g id="node2" class="node"><title>type</title>
<ellipse fill="none" stroke="black" cx="40.2964" cy="-90" rx="27" ry="18"/>
<text text-anchor="middle" x="40.2964" y="-86.3" font-family="Times,serif" font-size="14.00">type</text>
</g>
<!-- formats&#45;&gt;type -->
<g id="edge2" class="edge"><title>formats&#45;&gt;type</title>
<path fill="none" stroke="black" d="M34.4182,-144.055C33.5879,-136.231 33.3507,-126.748 33.7066,-117.977"/>
<polygon fill="black" stroke="black" points="37.2128,-118.013 34.4349,-107.789 30.2307,-117.514 37.2128,-118.013"/>
</g>
<!-- type&#45;&gt;formats -->
<g id="edge3" class="edge"><title>type&#45;&gt;formats</title>
<path fill="none" stroke="black" d="M46.158,-107.789C46.9962,-115.591 47.2413,-125.067 46.8933,-133.848"/>
<polygon fill="black" stroke="black" points="43.3857,-133.834 46.1747,-144.055 50.3684,-134.325 43.3857,-133.834"/>
</g>
<!-- type&#45;&gt;type -->
<g id="edge4" class="edge"><title>type&#45;&gt;type</title>
<path fill="none" stroke="black" d="M60.1915,-102.432C72.9844,-105.675 85.2964,-101.531 85.2964,-90 85.2964,-81.6218 78.797,-77.1433 70.3359,-76.5644"/>
<polygon fill="black" stroke="black" points="69.7984,-73.1004 60.1915,-77.5679 70.4874,-80.0665 69.7984,-73.1004"/>
</g>
<!-- member -->
<g id="node3" class="node"><title>member</title>
<ellipse fill="none" stroke="black" cx="40.2964" cy="-18" rx="40.0939" ry="18"/>
<text text-anchor="middle" x="40.2964" y="-14.3" font-family="Times,serif" font-size="14.00">member</text>
</g>
<!-- type&#45;&gt;member -->
<g id="edge5" class="edge"><title>type&#45;&gt;member</title>
<path fill="none" stroke="black" d="M34.4565,-72.411C33.5939,-64.507 33.3445,-54.8518 33.7083,-45.9352"/>
<polygon fill="black" stroke="black" points="37.1997,-46.1791 34.417,-35.9562 30.2173,-45.6831 37.1997,-46.1791"/>
</g>
<!-- member&#45;&gt;formats -->
<g id="edge6" class="edge"><title>member&#45;&gt;formats</title>
<path fill="none" stroke="black" d="M61.8608,-33.4354C73.8658,-42.8325 87.6877,-56.2537 94.2964,-72 100.488,-86.7533 100.488,-93.2467 94.2964,-108 89.0416,-120.52 79.2264,-131.571 69.3903,-140.297"/>
<polygon fill="black" stroke="black" points="67.0404,-137.699 61.5841,-146.781 71.513,-143.084 67.0404,-137.699"/>
</g>
<!-- member&#45;&gt;type -->
<g id="edge7" class="edge"><title>member&#45;&gt;type</title>
<path fill="none" stroke="black" d="M46.1758,-35.9562C47.0103,-43.8272 47.2449,-53.3739 46.8795,-62.1869"/>
<polygon fill="black" stroke="black" points="43.3706,-62.1835 46.1363,-72.411 50.3522,-62.6911 43.3706,-62.1835"/>
</g>
<!-- member&#45;&gt;member -->
<g id="edge8" class="edge"><title>member&#45;&gt;member</title>
<path fill="none" stroke="black" d="M68.7903,-30.8993C84.3455,-33.1982 98.5928,-28.8984 98.5928,-18 98.5928,-9.57074 90.07,-5.08884 79.0111,-4.55429"/>
<polygon fill="black" stroke="black" points="78.5892,-1.07175 68.7903,-5.10068 78.9629,-8.06177 78.5892,-1.07175"/>
</g>
</g>
</svg>
