<?xml version="1.0" encoding="UTF-8" standalone="no"?>
<!DOCTYPE svg PUBLIC "-//W3C//DTD SVG 1.1//EN"
 "http://www.w3.org/Graphics/SVG/1.1/DTD/svg11.dtd">
<!-- Generated by graphviz version 2.26.3 (20100126.1600)
 -->
<!-- Title: jsonv Pages: 1 -->
<svg width="380pt" height="256pt"
 viewBox="0.00 0.00 380.00 256.00" xmlns="http://www.w3.org/2000/svg" xmlns:xlink="http://www.w3.org/1999/xlink">
<g id="graph1" class="graph" transform="scale(1 1) rotate(0) translate(4 252)">
<title>jsonv</title>
<polygon fill="white" stroke="white" points="-4,5 -4,-252 377,-252 377,5 -4,5"/>
<text text-anchor="middle" x="186" y="-231.4" font-family="Times Roman,serif" font-size="14.00">Conversions</text>
<!-- str -->
<g id="node1" class="node"><title>str</title>
<ellipse fill="none" stroke="black" cx="119" cy="-203" rx="60.8112" ry="18.3848"/>
<text text-anchor="middle" x="119" y="-199.4" font-family="Times Roman,serif" font-size="14.00">std::string</text>
</g>
<!-- value -->
<g id="node4" class="node"><title>value</title>
<a xlink:href="classjsonv_1_1value.html" target="_top" xlink:title="value">
<ellipse fill="none" stroke="black" cx="180" cy="-111" rx="38.1838" ry="18.3848"/>
<text text-anchor="middle" x="180" y="-107.4" font-family="Times Roman,serif" font-size="14.00">value</text>
</a>
</g>
<!-- str&#45;&gt;value -->
<g id="edge6" class="edge"><title>str&#45;&gt;value</title>
<path fill="none" stroke="black" d="M113.13,-184.484C110.686,-173.215 109.692,-158.934 116,-148 121.347,-138.733 129.997,-131.578 139.233,-126.142"/>
<polygon fill="black" stroke="black" points="140.953,-129.193 148.179,-121.445 137.698,-122.995 140.953,-129.193"/>
<text text-anchor="middle" x="135" y="-153.4" font-family="Times Roman,serif" font-size="14.00">parse</text>
</g>
<!-- istream -->
<g id="node2" class="node"><title>istream</title>
<ellipse fill="none" stroke="black" cx="267" cy="-203" rx="68.7979" ry="18.3848"/>
<text text-anchor="middle" x="267" y="-199.4" font-family="Times Roman,serif" font-size="14.00">std::istream</text>
</g>
<!-- istream&#45;&gt;value -->
<g id="edge8" class="edge"><title>istream&#45;&gt;value</title>
<path fill="none" stroke="black" d="M258.497,-184.578C252.663,-173.207 244.152,-158.783 234,-148 228.009,-141.636 220.744,-135.757 213.511,-130.645"/>
<polygon fill="black" stroke="black" points="215.369,-127.677 205.114,-125.014 211.47,-133.49 215.369,-127.677"/>
<text text-anchor="middle" x="265" y="-153.4" font-family="Times Roman,serif" font-size="14.00">parse</text>
</g>
<!-- ostream -->
<g id="node3" class="node"><title>ostream</title>
<ellipse fill="none" stroke="black" cx="73" cy="-19" rx="72.832" ry="18.3848"/>
<text text-anchor="middle" x="73" y="-15.4" font-family="Times Roman,serif" font-size="14.00">std::ostream</text>
</g>
<!-- value&#45;&gt;str -->
<g id="edge2" class="edge"><title>value&#45;&gt;str</title>
<path fill="none" stroke="black" d="M174.797,-129.559C171.147,-140.711 165.564,-154.851 158,-166 155.062,-170.33 151.541,-174.538 147.833,-178.47"/>
<polygon fill="black" stroke="black" points="145.222,-176.129 140.574,-185.649 150.145,-181.105 145.222,-176.129"/>
<text text-anchor="middle" x="199" y="-153.4" font-family="Times Roman,serif" font-size="14.00">to_string</text>
</g>
<!-- value&#45;&gt;ostream -->
<g id="edge4" class="edge"><title>value&#45;&gt;ostream</title>
<path fill="none" stroke="black" d="M144.079,-104.601C124.935,-99.4189 102.422,-90.2025 88,-74 81.5454,-66.7487 77.8349,-56.9799 75.7132,-47.6873"/>
<polygon fill="black" stroke="black" points="79.111,-46.7999 73.9314,-37.5575 72.2168,-48.0126 79.111,-46.7999"/>
<text text-anchor="middle" x="130" y="-61.4" font-family="Times Roman,serif" font-size="14.00">operator&lt;&lt;</text>
</g>
<!-- value&#45;&gt;value -->
<g id="edge10" class="edge"><title>value&#45;&gt;value</title>
<path fill="none" stroke="black" d="M213.9,-119.617C226.074,-119.802 236,-116.93 236,-111 236,-106.831 231.093,-104.173 223.947,-103.027"/>
<polygon fill="black" stroke="black" points="224.103,-99.5297 213.9,-102.383 223.655,-106.515 224.103,-99.5297"/>
<text text-anchor="middle" x="304" y="-107.4" font-family="Times Roman,serif" font-size="14.00">map, merge, diff, ...</text>
</g>
<!-- class -->
<g id="node5" class="node"><title>class</title>
<ellipse fill="none" stroke="black" cx="239" cy="-19" rx="61.0181" ry="18.3848"/>
<text text-anchor="middle" x="239" y="-15.4" font-family="Times Roman,serif" font-size="14.00">C++ class</text>
</g>
<!-- value&#45;&gt;class -->
<g id="edge12" class="edge"><title>value&#45;&gt;class</title>
<path fill="none" stroke="black" d="M176.141,-92.5301C174.766,-81.2776 174.84,-66.9986 181,-56 184.451,-49.8388 189.402,-44.5499 194.975,-40.059"/>
<polygon fill="black" stroke="black" points="197.341,-42.6731 203.485,-34.0418 193.299,-36.9577 197.341,-42.6731"/>
<text text-anchor="middle" x="206" y="-61.4" font-family="Times Roman,serif" font-size="14.00">extract</text>
</g>
<!-- class&#45;&gt;value -->
<g id="edge14" class="edge"><title>class&#45;&gt;value</title>
<path fill="none" stroke="black" d="M239.826,-37.5397C239.511,-48.8183 237.59,-63.1005 231,-74 226.861,-80.8452 220.926,-86.7987 214.558,-91.8115"/>
<polygon fill="black" stroke="black" points="212.473,-88.999 206.363,-97.6541 216.537,-94.6988 212.473,-88.999"/>
<text text-anchor="middle" x="262" y="-61.4" font-family="Times Roman,serif" font-size="14.00">to_json</text>
</g>
</g>
</svg>
