<?xml version="1.0" encoding="UTF-8" standalone="no"?>
<!DOCTYPE svg PUBLIC "-//W3C//DTD SVG 1.1//EN"
 "http://www.w3.org/Graphics/SVG/1.1/DTD/svg11.dtd">
<!-- Generated by graphviz version 2.36.0 (20140111.2315)
 -->
<!-- Title: formats Pages: 1 -->
<svg width="458pt" height="188pt"
 viewBox="0.00 0.00 458.00 188.00" xmlns="http://www.w3.org/2000/svg" xmlns:xlink="http://www.w3.org/1999/xlink">
<g id="graph0" class="graph" transform="scale(1 1) rotate(0) translate(4 184)">
<title>formats</title>
<polygon fill="white" stroke="none" points="-4,4 -4,-184 454,-184 454,4 -4,4"/>
<!-- defaults -->
<g id="node1" class="node"><title>defaults</title>
<ellipse fill="none" stroke="black" cx="70" cy="-90" rx="70.2668" ry="18"/>
<text text-anchor="middle" x="70" y="-86.3" font-family="Times,serif" font-size="14.00">formats::defaults</text>
</g>
<!-- coerce -->
<g id="node2" class="node"><title>coerce</title>
<ellipse fill="none" stroke="black" cx="385" cy="-90" rx="65.4659" ry="18"/>
<text text-anchor="middle" x="385" y="-86.3" font-family="Times,serif" font-size="14.00">formats::coerce</text>
</g>
<!-- lib -->
<g id="node3" class="node"><title>lib</title>
<ellipse fill="none" stroke="black" cx="230" cy="-18" rx="68.3664" ry="18"/>
<text text-anchor="middle" x="230" y="-14.3" font-family="Times,serif" font-size="14.00">some_3rd_party</text>
</g>
<!-- my_app -->
<g id="node4" class="node"><title>my_app</title>
<ellipse fill="none" stroke="black" cx="230" cy="-90" rx="71.2405" ry="18"/>
<text text-anchor="middle" x="230" y="-86.3" font-family="Times,serif" font-size="14.00">my_app_formats</text>
</g>
<!-- my_app&#45;&gt;lib -->
<g id="edge1" class="edge"><title>my_app&#45;&gt;lib</title>
<path fill="none" stroke="black" d="M230,-71.6966C230,-63.9827 230,-54.7125 230,-46.1124"/>
<polygon fill="black" stroke="black" points="233.5,-46.1043 230,-36.1043 226.5,-46.1044 233.5,-46.1043"/>
</g>
<!-- db -->
<g id="node5" class="node"><title>db</title>
<ellipse fill="none" stroke="black" cx="127" cy="-162" rx="100.611" ry="18"/>
<text text-anchor="middle" x="127" y="-158.3" font-family="Times,serif" font-size="14.00">my_app_database_loader</text>
</g>
<!-- db&#45;&gt;defaults -->
<g id="edge2" class="edge"><title>db&#45;&gt;defaults</title>
<path fill="none" stroke="black" d="M113.202,-144.055C106.27,-135.543 97.7414,-125.068 90.0978,-115.681"/>
<polygon fill="black" stroke="black" points="92.6994,-113.333 83.671,-107.789 87.2713,-117.753 92.6994,-113.333"/>
</g>
<!-- db&#45;&gt;my_app -->
<g id="edge3" class="edge"><title>db&#45;&gt;my_app</title>
<path fill="none" stroke="black" d="M151.41,-144.411C165.234,-135.016 182.7,-123.146 197.653,-112.983"/>
<polygon fill="black" stroke="black" points="199.818,-115.744 206.121,-107.228 195.883,-109.955 199.818,-115.744"/>
</g>
<!-- api -->
<g id="node6" class="node"><title>api</title>
<ellipse fill="none" stroke="black" cx="356" cy="-162" rx="81.3646" ry="18"/>
<text text-anchor="middle" x="356" y="-158.3" font-family="Times,serif" font-size="14.00">my_app_api_loader</text>
</g>
<!-- api&#45;&gt;coerce -->
<g id="edge4" class="edge"><title>api&#45;&gt;coerce</title>
<path fill="none" stroke="black" d="M363.02,-144.055C366.284,-136.176 370.245,-126.617 373.9,-117.794"/>
<polygon fill="black" stroke="black" points="377.249,-118.853 377.843,-108.275 370.782,-116.174 377.249,-118.853"/>
</g>
<!-- api&#45;&gt;my_app -->
<g id="edge5" class="edge"><title>api&#45;&gt;my_app</title>
<path fill="none" stroke="black" d="M327.409,-145.116C309.482,-135.157 286.193,-122.218 266.882,-111.49"/>
<polygon fill="black" stroke="black" points="268.486,-108.377 258.044,-106.58 265.086,-114.496 268.486,-108.377"/>
</g>
</g>
</svg>
