<?xml version="1.0" encoding="UTF-8" standalone="no"?>
<!DOCTYPE svg PUBLIC "-//W3C//DTD SVG 1.1//EN"
 "http://www.w3.org/Graphics/SVG/1.1/DTD/svg11.dtd">
<!-- Generated by graphviz version 2.38.0 (20140413.2041)
 -->
<!-- Title: jsonv Pages: 1 -->
<svg width="345pt" height="241pt"
 viewBox="0.00 0.00 345.09 241.00" xmlns="http://www.w3.org/2000/svg" xmlns:xlink="http://www.w3.org/1999/xlink">
<g id="graph0" class="graph" transform="scale(1 1) rotate(0) translate(4 237)">
<title>jsonv</title>
<polygon fill="white" stroke="none" points="-4,4 -4,-237 341.091,-237 341.091,4 -4,4"/>
<text text-anchor="middle" x="168.546" y="-217.8" font-family="Times,serif" font-size="14.00">Conversions</text>
<!-- str -->
<g id="node1" class="node"><title>str</title>
<ellipse fill="none" stroke="black" cx="54.9452" cy="-192" rx="46.2923" ry="18"/>
<text text-anchor="middle" x="54.9452" y="-188.3" font-family="Times,serif" font-size="14.00">std::string</text>
</g>
<!-- value -->
<g id="node4" class="node"><title>value</title>
<g id="a_node4"><a xlink:href="classjsonv_1_1value.html" target="_top" xlink:title="value">
<ellipse fill="none" stroke="black" cx="138.945" cy="-105" rx="29.795" ry="18"/>
<text text-anchor="middle" x="138.945" y="-101.3" font-family="Times,serif" font-size="14.00">value</text>
</a>
</g>
</g>
<!-- str&#45;&gt;value -->
<g id="edge3" class="edge"><title>str&#45;&gt;value</title>
<g id="a_edge3"><a xlink:href="" target="_top" xlink:title="parse">
<path fill="none" stroke="black" d="M50.4715,-173.882C48.7879,-163.529 48.5893,-150.534 54.9452,-141 65.128,-125.726 83.3723,-117.107 100.262,-112.248"/>
<polygon fill="black" stroke="black" points="101.137,-115.637 109.979,-109.8 99.427,-108.849 101.137,-115.637"/>
</a>
</g>
<g id="a_edge3&#45;label"><a xlink:href="" target="_top" xlink:title="parse">
<text text-anchor="middle" x="69.4452" y="-144.8" font-family="Times,serif" font-size="14.00">parse</text>
</a>
</g>
</g>
<!-- istream -->
<g id="node2" class="node"><title>istream</title>
<ellipse fill="none" stroke="black" cx="174.945" cy="-192" rx="51.9908" ry="18"/>
<text text-anchor="middle" x="174.945" y="-188.3" font-family="Times,serif" font-size="14.00">std::istream</text>
</g>
<!-- istream&#45;&gt;value -->
<g id="edge4" class="edge"><title>istream&#45;&gt;value</title>
<g id="a_edge4"><a xlink:href="" target="_top" xlink:title="parse">
<path fill="none" stroke="black" d="M167.66,-173.799C162.568,-161.776 155.677,-145.506 149.922,-131.918"/>
<polygon fill="black" stroke="black" points="153.097,-130.44 145.975,-122.597 146.652,-133.17 153.097,-130.44"/>
</a>
</g>
<g id="a_edge4&#45;label"><a xlink:href="" target="_top" xlink:title="parse">
<text text-anchor="middle" x="174.445" y="-144.8" font-family="Times,serif" font-size="14.00">parse</text>
</a>
</g>
</g>
<!-- ostream -->
<g id="node3" class="node"><title>ostream</title>
<ellipse fill="none" stroke="black" cx="53.9452" cy="-18" rx="53.8905" ry="18"/>
<text text-anchor="middle" x="53.9452" y="-14.3" font-family="Times,serif" font-size="14.00">std::ostream</text>
</g>
<!-- value&#45;&gt;str -->
<g id="edge1" class="edge"><title>value&#45;&gt;str</title>
<g id="a_edge1"><a xlink:href="" target="_top" xlink:title="to_string">
<path fill="none" stroke="black" d="M123.269,-120.446C116.609,-126.681 108.812,-134.112 101.945,-141 93.5737,-149.398 84.6073,-158.824 76.7739,-167.209"/>
<polygon fill="black" stroke="black" points="74.1894,-164.848 69.9481,-174.557 79.3182,-169.612 74.1894,-164.848"/>
</a>
</g>
<g id="a_edge1&#45;label"><a xlink:href="" target="_top" xlink:title="to_string">
<text text-anchor="middle" x="126.445" y="-144.8" font-family="Times,serif" font-size="14.00">to_string</text>
</a>
</g>
</g>
<!-- value&#45;&gt;ostream -->
<g id="edge2" class="edge"><title>value&#45;&gt;ostream</title>
<path fill="none" stroke="black" d="M112.467,-96.1874C98.0748,-90.7016 81.0069,-81.9863 69.9452,-69 64.46,-62.5604 60.849,-54.2181 58.4743,-46.1991"/>
<polygon fill="black" stroke="black" points="61.8498,-45.2677 56.0794,-36.3822 55.0492,-46.9268 61.8498,-45.2677"/>
<text text-anchor="middle" x="100.945" y="-57.8" font-family="Times,serif" font-size="14.00">operator&lt;&lt;</text>
</g>
<!-- value&#45;&gt;value -->
<g id="edge5" class="edge"><title>value&#45;&gt;value</title>
<path fill="none" stroke="black" d="M166.027,-112.806C177.293,-113.344 186.843,-110.742 186.843,-105 186.843,-101.142 182.532,-98.7015 176.286,-97.6786"/>
<polygon fill="black" stroke="black" points="176.181,-94.1698 166.027,-97.1942 175.851,-101.162 176.181,-94.1698"/>
<text text-anchor="middle" x="242.843" y="-101.3" font-family="Times,serif" font-size="14.00">map, merge, diff, ...</text>
</g>
<!-- class -->
<g id="node5" class="node"><title>class</title>
<ellipse fill="none" stroke="black" cx="185.945" cy="-18" rx="46.5926" ry="18"/>
<text text-anchor="middle" x="185.945" y="-14.3" font-family="Times,serif" font-size="14.00">C++ class</text>
</g>
<!-- value&#45;&gt;class -->
<g id="edge6" class="edge"><title>value&#45;&gt;class</title>
<g id="a_edge6"><a xlink:href="" target="_top" xlink:title="extract">
<path fill="none" stroke="black" d="M135.717,-86.8985C134.654,-76.7986 134.832,-64.0622 139.945,-54 142.683,-48.6128 146.678,-43.8234 151.187,-39.6487"/>
<polygon fill="black" stroke="black" points="153.569,-42.2237 159.131,-33.2062 149.159,-36.7871 153.569,-42.2237"/>
</a>
</g>
<g id="a_edge6&#45;label"><a xlink:href="" target="_top" xlink:title="extract">
<text text-anchor="middle" x="158.445" y="-57.8" font-family="Times,serif" font-size="14.00">extract</text>
</a>
</g>
</g>
<!-- class&#45;&gt;value -->
<g id="edge7" class="edge"><title>class&#45;&gt;value</title>
<g id="a_edge7"><a xlink:href="" target="_top" xlink:title="to_json">
<path fill="none" stroke="black" d="M185.562,-36.1104C184.7,-46.2135 182.465,-58.9501 176.945,-69 173.958,-74.4391 169.809,-79.4947 165.346,-83.9768"/>
<polygon fill="black" stroke="black" points="162.728,-81.6266 157.686,-90.9449 167.439,-86.8047 162.728,-81.6266"/>
</a>
</g>
<g id="a_edge7&#45;label"><a xlink:href="" target="_top" xlink:title="to_json">
<text text-anchor="middle" x="202.945" y="-57.8" font-family="Times,serif" font-size="14.00">to_json</text>
</a>
</g>
</g>
<!-- dsl -->
<g id="node6" class="node"><title>dsl</title>
<ellipse fill="none" stroke="black" cx="290.945" cy="-192" rx="46.2923" ry="18"/>
<text text-anchor="middle" x="290.945" y="-188.3" font-family="Times,serif" font-size="14.00">C++ DSL</text>
</g>
<!-- dsl&#45;&gt;value -->
<g id="edge8" class="edge"><title>dsl&#45;&gt;value</title>
<path fill="none" stroke="black" d="M265.504,-176.773C238.928,-161.912 197.259,-138.609 169.059,-122.84"/>
<polygon fill="black" stroke="black" points="170.49,-119.63 160.054,-117.804 167.074,-125.74 170.49,-119.63"/>
<text text-anchor="middle" x="277.945" y="-144.8" font-family="Times,serif" font-size="14.00">value, object, array</text>
</g>
</g>
</svg>
