<?xml version="1.0" encoding="UTF-8" standalone="no"?>
<!DOCTYPE svg PUBLIC "-//W3C//DTD SVG 1.1//EN"
 "http://www.w3.org/Graphics/SVG/1.1/DTD/svg11.dtd">
<!-- Generated by graphviz version 2.26.3 (20100126.1600)
 -->
<!-- Title: formats Pages: 1 -->
<svg width="588pt" height="194pt"
 viewBox="0.00 0.00 588.00 194.00" xmlns="http://www.w3.org/2000/svg" xmlns:xlink="http://www.w3.org/1999/xlink">
<g id="graph1" class="graph" transform="scale(1 1) rotate(0) translate(4 190)">
<title>formats</title>
<polygon fill="white" stroke="white" points="-4,5 -4,-190 585,-190 585,5 -4,5"/>
<!-- defaults -->
<g id="node1" class="node"><title>defaults</title>
<ellipse fill="none" stroke="black" cx="94" cy="-93" rx="94.0452" ry="18.3848"/>
<text text-anchor="middle" x="94" y="-89.4" font-family="Times Roman,serif" font-size="14.00">formats::defaults</text>
</g>
<!-- coerce -->
<g id="node2" class="node"><title>coerce</title>
<ellipse fill="none" stroke="black" cx="494" cy="-93" rx="85.7684" ry="18.3848"/>
<text text-anchor="middle" x="494" y="-89.4" font-family="Times Roman,serif" font-size="14.00">formats::coerce</text>
</g>
<!-- lib -->
<g id="node3" class="node"><title>lib</title>
<ellipse fill="none" stroke="black" cx="298" cy="-19" rx="90.0096" ry="18.3848"/>
<text text-anchor="middle" x="298" y="-15.4" font-family="Times Roman,serif" font-size="14.00">some_3rd_party</text>
</g>
<!-- my_app -->
<g id="node4" class="node"><title>my_app</title>
<ellipse fill="none" stroke="black" cx="298" cy="-93" rx="91.9239" ry="18.3848"/>
<text text-anchor="middle" x="298" y="-89.4" font-family="Times Roman,serif" font-size="14.00">my_app_formats</text>
</g>
<!-- my_app&#45;&gt;lib -->
<g id="edge2" class="edge"><title>my_app&#45;&gt;lib</title>
<path fill="none" stroke="black" d="M298,-74.3267C298,-66.2639 298,-56.6477 298,-47.7115"/>
<polygon fill="black" stroke="black" points="301.5,-47.6673 298,-37.6674 294.5,-47.6674 301.5,-47.6673"/>
</g>
<!-- db -->
<g id="node5" class="node"><title>db</title>
<ellipse fill="none" stroke="black" cx="166" cy="-167" rx="133.851" ry="18.3848"/>
<text text-anchor="middle" x="166" y="-163.4" font-family="Times Roman,serif" font-size="14.00">my_app_database_loader</text>
</g>
<!-- db&#45;&gt;defaults -->
<g id="edge4" class="edge"><title>db&#45;&gt;defaults</title>
<path fill="none" stroke="black" d="M147.831,-148.327C139.067,-139.319 128.417,-128.373 118.91,-118.602"/>
<polygon fill="black" stroke="black" points="121.396,-116.138 111.913,-111.411 116.378,-121.019 121.396,-116.138"/>
</g>
<!-- db&#45;&gt;my_app -->
<g id="edge6" class="edge"><title>db&#45;&gt;my_app</title>
<path fill="none" stroke="black" d="M198.291,-148.898C216.213,-138.85 238.668,-126.262 257.729,-115.576"/>
<polygon fill="black" stroke="black" points="259.487,-118.603 266.498,-110.66 256.064,-112.497 259.487,-118.603"/>
</g>
<!-- api -->
<g id="node6" class="node"><title>api</title>
<ellipse fill="none" stroke="black" cx="458" cy="-167" rx="104.151" ry="18.3848"/>
<text text-anchor="middle" x="458" y="-163.4" font-family="Times Roman,serif" font-size="14.00">my_app_api_loader</text>
</g>
<!-- api&#45;&gt;coerce -->
<g id="edge8" class="edge"><title>api&#45;&gt;coerce</title>
<path fill="none" stroke="black" d="M467.084,-148.327C471.166,-139.937 476.065,-129.866 480.559,-120.629"/>
<polygon fill="black" stroke="black" points="483.816,-121.935 485.043,-111.411 477.521,-118.872 483.816,-121.935"/>
</g>
<!-- api&#45;&gt;my_app -->
<g id="edge10" class="edge"><title>api&#45;&gt;my_app</title>
<path fill="none" stroke="black" d="M420.487,-149.65C397.655,-139.091 368.32,-125.523 344.082,-114.313"/>
<polygon fill="black" stroke="black" points="345.272,-111.007 334.726,-109.986 342.333,-117.36 345.272,-111.007"/>
</g>
</g>
</svg>
