<?xml version="1.0" encoding="UTF-8" standalone="no"?>
<!DOCTYPE svg PUBLIC "-//W3C//DTD SVG 1.1//EN"
 "http://www.w3.org/Graphics/SVG/1.1/DTD/svg11.dtd">
<!-- Generated by graphviz version 2.40.1 (20161225.0304)
 -->
<!-- Title: serialization_builder_dsl Pages: 1 -->
<svg width="109pt" height="188pt"
 viewBox="0.00 0.00 109.19 188.00" xmlns="http://www.w3.org/2000/svg" xmlns:xlink="http://www.w3.org/1999/xlink">
<g id="graph0" class="graph" transform="scale(1 1) rotate(0) translate(4 184)">
<title>serialization_builder_dsl</title>
<polygon fill="#ffffff" stroke="transparent" points="-4,4 -4,-184 105.1926,-184 105.1926,4 -4,4"/>
<!-- formats -->
<g id="node1" class="node">
<title>formats</title>
<ellipse fill="none" stroke="#000000" cx="41.5963" cy="-162" rx="38.1938" ry="18"/>
<text text-anchor="middle" x="41.5963" y="-158.3" font-family="Times,serif" font-size="14.00" fill="#000000">formats</text>
</g>
<!-- formats&#45;&gt;formats -->
<g id="edge1" class="edge">
<title>formats&#45;&gt;formats</title>
<path fill="none" stroke="#000000" d="M68.5545,-174.807C83.8144,-177.3081 97.9429,-173.0391 97.9429,-162 97.9429,-153.462 89.4912,-148.9738 78.6011,-148.5356"/>
<polygon fill="#000000" stroke="#000000" points="78.3046,-145.0474 68.5545,-149.193 78.7618,-152.0325 78.3046,-145.0474"/>
</g>
<!-- type -->
<g id="node2" class="node">
<title>type</title>
<ellipse fill="none" stroke="#000000" cx="41.5963" cy="-90" rx="27" ry="18"/>
<text text-anchor="middle" x="41.5963" y="-86.3" font-family="Times,serif" font-size="14.00" fill="#000000">type</text>
</g>
<!-- formats&#45;&gt;type -->
<g id="edge2" class="edge">
<title>formats&#45;&gt;type</title>
<path fill="none" stroke="#000000" d="M35.6806,-144.2022C34.8761,-136.1807 34.6535,-126.5231 35.0125,-117.5957"/>
<polygon fill="#000000" stroke="#000000" points="38.506,-117.8099 35.7013,-107.593 31.5225,-117.3289 38.506,-117.8099"/>
</g>
<!-- type&#45;&gt;formats -->
<g id="edge3" class="edge">
<title>type&#45;&gt;formats</title>
<path fill="none" stroke="#000000" d="M47.4913,-107.593C48.3057,-115.5865 48.5383,-125.2363 48.1891,-134.1759"/>
<polygon fill="#000000" stroke="#000000" points="44.6939,-133.9891 47.512,-144.2022 51.678,-134.4608 44.6939,-133.9891"/>
</g>
<!-- type&#45;&gt;type -->
<g id="edge4" class="edge">
<title>type&#45;&gt;type</title>
<path fill="none" stroke="#000000" d="M61.4913,-102.4321C74.2843,-105.6753 86.5963,-101.5313 86.5963,-90 86.5963,-81.6218 80.0969,-77.1433 71.6358,-76.5644"/>
<polygon fill="#000000" stroke="#000000" points="71.0982,-73.1004 61.4913,-77.5679 71.7873,-80.0665 71.0982,-73.1004"/>
</g>
<!-- member -->
<g id="node3" class="node">
<title>member</title>
<ellipse fill="none" stroke="#000000" cx="41.5963" cy="-18" rx="41.6928" ry="18"/>
<text text-anchor="middle" x="41.5963" y="-14.3" font-family="Times,serif" font-size="14.00" fill="#000000">member</text>
</g>
<!-- type&#45;&gt;member -->
<g id="edge5" class="edge">
<title>type&#45;&gt;member</title>
<path fill="none" stroke="#000000" d="M35.6806,-72.2022C34.8908,-64.3271 34.6618,-54.875 34.9934,-46.0852"/>
<polygon fill="#000000" stroke="#000000" points="38.5033,-46.0532 35.6761,-35.8425 31.5188,-45.5876 38.5033,-46.0532"/>
</g>
<!-- member&#45;&gt;formats -->
<g id="edge6" class="edge">
<title>member&#45;&gt;formats</title>
<path fill="none" stroke="#000000" d="M64.0042,-33.4662C75.8125,-43.0323 89.1527,-56.4437 95.5963,-72 101.7192,-86.7821 101.7192,-93.2179 95.5963,-108 90.4318,-120.4682 80.8371,-131.5585 71.1516,-140.3956"/>
<polygon fill="#000000" stroke="#000000" points="68.7734,-137.824 63.4475,-146.9829 73.3225,-143.1443 68.7734,-137.824"/>
</g>
<!-- member&#45;&gt;type -->
<g id="edge7" class="edge">
<title>member&#45;&gt;type</title>
<path fill="none" stroke="#000000" d="M47.5165,-35.8425C48.3042,-43.7236 48.5311,-53.1774 48.1973,-61.9647"/>
<polygon fill="#000000" stroke="#000000" points="44.6878,-61.9908 47.512,-72.2022 51.6722,-62.4583 44.6878,-61.9908"/>
</g>
<!-- member&#45;&gt;member -->
<g id="edge8" class="edge">
<title>member&#45;&gt;member</title>
<path fill="none" stroke="#000000" d="M70.7255,-30.8993C86.6276,-33.1982 101.1926,-28.8984 101.1926,-18 101.1926,-9.4856 92.3028,-4.9987 80.8308,-4.5393"/>
<polygon fill="#000000" stroke="#000000" points="80.516,-1.0513 70.7255,-5.1007 80.9043,-8.0405 80.516,-1.0513"/>
</g>
</g>
</svg>
