<?xml version="1.0" encoding="UTF-8" standalone="no"?>
<!DOCTYPE svg PUBLIC "-//W3C//DTD SVG 1.1//EN"
 "http://www.w3.org/Graphics/SVG/1.1/DTD/svg11.dtd">
<!-- Generated by graphviz version 2.40.1 (20161225.0304)
 -->
<!-- Title: serialization_builder_dsl Pages: 1 -->
<svg width="107pt" height="188pt"
 viewBox="0.00 0.00 106.89 188.00" xmlns="http://www.w3.org/2000/svg" xmlns:xlink="http://www.w3.org/1999/xlink">
<g id="graph0" class="graph" transform="scale(1 1) rotate(0) translate(4 184)">
<title>serialization_builder_dsl</title>
<polygon fill="#ffffff" stroke="transparent" points="-4,4 -4,-184 102.8886,-184 102.8886,4 -4,4"/>
<!-- formats -->
<g id="node1" class="node">
<title>formats</title>
<ellipse fill="none" stroke="#000000" cx="40.2964" cy="-162" rx="38.1938" ry="18"/>
<text text-anchor="middle" x="40.2964" y="-158.3" font-family="Times,serif" font-size="14.00" fill="#000000">formats</text>
</g>
<!-- formats&#45;&gt;formats -->
<g id="edge1" class="edge">
<title>formats&#45;&gt;formats</title>
<path fill="none" stroke="#000000" d="M67.2547,-174.807C82.5145,-177.3081 96.643,-173.0391 96.643,-162 96.643,-153.462 88.1913,-148.9738 77.3012,-148.5356"/>
<polygon fill="#000000" stroke="#000000" points="77.0048,-145.0474 67.2547,-149.193 77.4619,-152.0325 77.0048,-145.0474"/>
</g>
<!-- type -->
<g id="node2" class="node">
<title>type</title>
<ellipse fill="none" stroke="#000000" cx="40.2964" cy="-90" rx="27" ry="18"/>
<text text-anchor="middle" x="40.2964" y="-86.3" font-family="Times,serif" font-size="14.00" fill="#000000">type</text>
</g>
<!-- formats&#45;&gt;type -->
<g id="edge2" class="edge">
<title>formats&#45;&gt;type</title>
<path fill="none" stroke="#000000" d="M34.3807,-144.2022C33.5763,-136.1807 33.3536,-126.5231 33.7126,-117.5957"/>
<polygon fill="#000000" stroke="#000000" points="37.2061,-117.8099 34.4014,-107.593 30.2226,-117.3289 37.2061,-117.8099"/>
</g>
<!-- type&#45;&gt;formats -->
<g id="edge3" class="edge">
<title>type&#45;&gt;formats</title>
<path fill="none" stroke="#000000" d="M46.1915,-107.593C47.0058,-115.5865 47.2384,-125.2363 46.8893,-134.1759"/>
<polygon fill="#000000" stroke="#000000" points="43.394,-133.9891 46.2122,-144.2022 50.3781,-134.4608 43.394,-133.9891"/>
</g>
<!-- type&#45;&gt;type -->
<g id="edge4" class="edge">
<title>type&#45;&gt;type</title>
<path fill="none" stroke="#000000" d="M60.1915,-102.4321C72.9844,-105.6753 85.2964,-101.5313 85.2964,-90 85.2964,-81.6218 78.797,-77.1433 70.3359,-76.5644"/>
<polygon fill="#000000" stroke="#000000" points="69.7984,-73.1004 60.1915,-77.5679 70.4874,-80.0665 69.7984,-73.1004"/>
</g>
<!-- member -->
<g id="node3" class="node">
<title>member</title>
<ellipse fill="none" stroke="#000000" cx="40.2964" cy="-18" rx="40.0939" ry="18"/>
<text text-anchor="middle" x="40.2964" y="-14.3" font-family="Times,serif" font-size="14.00" fill="#000000">member</text>
</g>
<!-- type&#45;&gt;member -->
<g id="edge5" class="edge">
<title>type&#45;&gt;member</title>
<path fill="none" stroke="#000000" d="M34.3807,-72.2022C33.5909,-64.3271 33.3619,-54.875 33.6936,-46.0852"/>
<polygon fill="#000000" stroke="#000000" points="37.2034,-46.0532 34.3762,-35.8425 30.2189,-45.5876 37.2034,-46.0532"/>
</g>
<!-- member&#45;&gt;formats -->
<g id="edge6" class="edge">
<title>member&#45;&gt;formats</title>
<path fill="none" stroke="#000000" d="M62.4257,-33.2409C74.3021,-42.8212 87.8021,-56.3212 94.2964,-72 100.4194,-86.7821 100.4194,-93.2179 94.2964,-108 89.1319,-120.4682 79.5372,-131.5585 69.8517,-140.3956"/>
<polygon fill="#000000" stroke="#000000" points="67.4735,-137.824 62.1476,-146.9829 72.0226,-143.1443 67.4735,-137.824"/>
</g>
<!-- member&#45;&gt;type -->
<g id="edge7" class="edge">
<title>member&#45;&gt;type</title>
<path fill="none" stroke="#000000" d="M46.2166,-35.8425C47.0043,-43.7236 47.2312,-53.1774 46.8974,-61.9647"/>
<polygon fill="#000000" stroke="#000000" points="43.3879,-61.9908 46.2122,-72.2022 50.3723,-62.4583 43.3879,-61.9908"/>
</g>
<!-- member&#45;&gt;member -->
<g id="edge8" class="edge">
<title>member&#45;&gt;member</title>
<path fill="none" stroke="#000000" d="M68.7903,-30.8993C84.3455,-33.1982 98.5928,-28.8984 98.5928,-18 98.5928,-9.5707 90.07,-5.0888 79.0111,-4.5543"/>
<polygon fill="#000000" stroke="#000000" points="78.5892,-1.0718 68.7903,-5.1007 78.9629,-8.0618 78.5892,-1.0718"/>
</g>
</g>
</svg>
