<?xml version="1.0" encoding="UTF-8" standalone="no"?>
<!DOCTYPE svg PUBLIC "-//W3C//DTD SVG 1.1//EN"
 "http://www.w3.org/Graphics/SVG/1.1/DTD/svg11.dtd">
<!-- Generated by graphviz version 2.38.0 (20140413.2041)
 -->
<!-- Title: formats Pages: 1 -->
<svg width="459pt" height="188pt"
 viewBox="0.00 0.00 459.49 188.00" xmlns="http://www.w3.org/2000/svg" xmlns:xlink="http://www.w3.org/1999/xlink">
<g id="graph0" class="graph" transform="scale(1 1) rotate(0) translate(4 184)">
<title>formats</title>
<polygon fill="white" stroke="none" points="-4,4 -4,-184 455.488,-184 455.488,4 -4,4"/>
<!-- defaults -->
<g id="node1" class="node"><title>defaults</title>
<ellipse fill="none" stroke="black" cx="70.8437" cy="-90" rx="70.6878" ry="18"/>
<text text-anchor="middle" x="70.8437" y="-86.3" font-family="Times,serif" font-size="14.00">formats::defaults</text>
</g>
<!-- coerce -->
<g id="node2" class="node"><title>coerce</title>
<ellipse fill="none" stroke="black" cx="385.844" cy="-90" rx="65.7887" ry="18"/>
<text text-anchor="middle" x="385.844" y="-86.3" font-family="Times,serif" font-size="14.00">formats::coerce</text>
</g>
<!-- lib -->
<g id="node3" class="node"><title>lib</title>
<ellipse fill="none" stroke="black" cx="230.844" cy="-18" rx="68.4888" ry="18"/>
<text text-anchor="middle" x="230.844" y="-14.3" font-family="Times,serif" font-size="14.00">some_3rd_party</text>
</g>
<!-- my_app -->
<g id="node4" class="node"><title>my_app</title>
<ellipse fill="none" stroke="black" cx="230.844" cy="-90" rx="71.4873" ry="18"/>
<text text-anchor="middle" x="230.844" y="-86.3" font-family="Times,serif" font-size="14.00">my_app_formats</text>
</g>
<!-- my_app&#45;&gt;lib -->
<g id="edge1" class="edge"><title>my_app&#45;&gt;lib</title>
<path fill="none" stroke="black" d="M230.844,-71.6966C230.844,-63.9827 230.844,-54.7125 230.844,-46.1124"/>
<polygon fill="black" stroke="black" points="234.344,-46.1043 230.844,-36.1043 227.344,-46.1044 234.344,-46.1043"/>
</g>
<!-- db -->
<g id="node5" class="node"><title>db</title>
<ellipse fill="none" stroke="black" cx="127.844" cy="-162" rx="100.983" ry="18"/>
<text text-anchor="middle" x="127.844" y="-158.3" font-family="Times,serif" font-size="14.00">my_app_database_loader</text>
</g>
<!-- db&#45;&gt;defaults -->
<g id="edge2" class="edge"><title>db&#45;&gt;defaults</title>
<path fill="none" stroke="black" d="M114.046,-144.055C107.114,-135.543 98.5851,-125.068 90.9415,-115.681"/>
<polygon fill="black" stroke="black" points="93.5431,-113.333 84.5148,-107.789 88.115,-117.753 93.5431,-113.333"/>
</g>
<!-- db&#45;&gt;my_app -->
<g id="edge3" class="edge"><title>db&#45;&gt;my_app</title>
<path fill="none" stroke="black" d="M152.253,-144.411C166.078,-135.016 183.544,-123.146 198.497,-112.983"/>
<polygon fill="black" stroke="black" points="200.661,-115.744 206.965,-107.228 196.727,-109.955 200.661,-115.744"/>
</g>
<!-- api -->
<g id="node6" class="node"><title>api</title>
<ellipse fill="none" stroke="black" cx="356.844" cy="-162" rx="81.4863" ry="18"/>
<text text-anchor="middle" x="356.844" y="-158.3" font-family="Times,serif" font-size="14.00">my_app_api_loader</text>
</g>
<!-- api&#45;&gt;coerce -->
<g id="edge4" class="edge"><title>api&#45;&gt;coerce</title>
<path fill="none" stroke="black" d="M363.864,-144.055C367.128,-136.176 371.088,-126.617 374.743,-117.794"/>
<polygon fill="black" stroke="black" points="378.093,-118.853 378.687,-108.275 371.626,-116.174 378.093,-118.853"/>
</g>
<!-- api&#45;&gt;my_app -->
<g id="edge5" class="edge"><title>api&#45;&gt;my_app</title>
<path fill="none" stroke="black" d="M328.252,-145.116C310.326,-135.157 287.037,-122.218 267.726,-111.49"/>
<polygon fill="black" stroke="black" points="269.329,-108.377 258.888,-106.58 265.93,-114.496 269.329,-108.377"/>
</g>
</g>
</svg>
