<?xml version="1.0" encoding="UTF-8" standalone="no"?>
<!DOCTYPE svg PUBLIC "-//W3C//DTD SVG 1.1//EN"
 "http://www.w3.org/Graphics/SVG/1.1/DTD/svg11.dtd">
<!-- Generated by graphviz version 2.26.3 (20100126.1600)
 -->
<!-- Title: serialization_builder_dsl Pages: 1 -->
<svg width="128pt" height="194pt"
 viewBox="0.00 0.00 128.00 194.00" xmlns="http://www.w3.org/2000/svg" xmlns:xlink="http://www.w3.org/1999/xlink">
<g id="graph1" class="graph" transform="scale(1 1) rotate(0) translate(4 190)">
<title>serialization_builder_dsl</title>
<polygon fill="white" stroke="white" points="-4,5 -4,-190 125,-190 125,5 -4,5"/>
<!-- formats -->
<g id="node1" class="node"><title>formats</title>
<ellipse fill="none" stroke="black" cx="51" cy="-167" rx="48.7904" ry="18.3848"/>
<text text-anchor="middle" x="51" y="-163.4" font-family="Times Roman,serif" font-size="14.00">formats</text>
</g>
<!-- formats&#45;&gt;formats -->
<g id="edge2" class="edge"><title>formats&#45;&gt;formats</title>
<path fill="none" stroke="black" d="M85.1288,-180.427C102.46,-182.388 118,-177.912 118,-167 118,-158.304 108.132,-153.696 95.353,-153.175"/>
<polygon fill="black" stroke="black" points="94.985,-149.686 85.1288,-153.573 95.2574,-156.681 94.985,-149.686"/>
</g>
<!-- type -->
<g id="node2" class="node"><title>type</title>
<ellipse fill="none" stroke="black" cx="51" cy="-93" rx="33.234" ry="18.3848"/>
<text text-anchor="middle" x="51" y="-89.4" font-family="Times Roman,serif" font-size="14.00">type</text>
</g>
<!-- formats&#45;&gt;type -->
<g id="edge4" class="edge"><title>formats&#45;&gt;type</title>
<path fill="none" stroke="black" d="M45.0476,-148.327C44.2773,-140.202 44.0649,-130.501 44.4106,-121.507"/>
<polygon fill="black" stroke="black" points="47.9107,-121.619 45.0727,-111.411 40.9257,-121.16 47.9107,-121.619"/>
</g>
<!-- type&#45;&gt;formats -->
<g id="edge6" class="edge"><title>type&#45;&gt;formats</title>
<path fill="none" stroke="black" d="M56.9273,-111.411C57.7097,-119.501 57.934,-129.193 57.6004,-138.202"/>
<polygon fill="black" stroke="black" points="54.0983,-138.124 56.9524,-148.327 61.084,-138.571 54.0983,-138.124"/>
</g>
<!-- type&#45;&gt;type -->
<g id="edge8" class="edge"><title>type&#45;&gt;type</title>
<path fill="none" stroke="black" d="M74.6074,-106.008C88.7188,-108.898 102,-104.562 102,-93 102,-84.3281 94.5293,-79.7212 84.8407,-79.1792"/>
<polygon fill="black" stroke="black" points="84.2988,-75.7111 74.6074,-79.9922 84.8532,-82.6891 84.2988,-75.7111"/>
</g>
<!-- member -->
<g id="node3" class="node"><title>member</title>
<ellipse fill="none" stroke="black" cx="51" cy="-19" rx="51.1176" ry="18.3848"/>
<text text-anchor="middle" x="51" y="-15.4" font-family="Times Roman,serif" font-size="14.00">member</text>
</g>
<!-- type&#45;&gt;member -->
<g id="edge10" class="edge"><title>type&#45;&gt;member</title>
<path fill="none" stroke="black" d="M45.0843,-74.7079C44.2918,-66.5866 44.0639,-56.8335 44.4005,-47.7736"/>
<polygon fill="black" stroke="black" points="47.906,-47.7997 45.055,-37.5957 40.9204,-47.3505 47.906,-47.7997"/>
</g>
<!-- member&#45;&gt;formats -->
<g id="edge12" class="edge"><title>member&#45;&gt;formats</title>
<path fill="none" stroke="black" d="M76.7782,-34.9958C89.6468,-44.5557 103.944,-57.961 111,-74 117.801,-89.4592 117.801,-96.5408 111,-112 105.378,-124.781 95.1564,-135.89 84.7242,-144.713"/>
<polygon fill="black" stroke="black" points="82.4456,-142.053 76.7782,-151.004 86.7909,-147.541 82.4456,-142.053"/>
</g>
<!-- member&#45;&gt;type -->
<g id="edge14" class="edge"><title>member&#45;&gt;type</title>
<path fill="none" stroke="black" d="M56.945,-37.5957C57.7234,-45.7572 57.9373,-55.5216 57.5867,-64.5639"/>
<polygon fill="black" stroke="black" points="54.0834,-64.4986 56.9157,-74.7079 61.0682,-64.9607 54.0834,-64.4986"/>
</g>
<!-- member&#45;&gt;member -->
<g id="edge16" class="edge"><title>member&#45;&gt;member</title>
<path fill="none" stroke="black" d="M86.1475,-32.427C103.996,-34.3878 120,-29.9121 120,-19 120,-10.2192 109.637,-5.60606 96.289,-5.16069"/>
<polygon fill="black" stroke="black" points="95.9971,-1.66957 86.1475,-5.57299 96.2815,-8.6638 95.9971,-1.66957"/>
</g>
</g>
</svg>
