<?xml version="1.0" encoding="UTF-8" standalone="no"?>
<!DOCTYPE svg PUBLIC "-//W3C//DTD SVG 1.1//EN"
 "http://www.w3.org/Graphics/SVG/1.1/DTD/svg11.dtd">
<!-- Generated by graphviz version 2.40.1 (20161225.0304)
 -->
<!-- Title: jsonv Pages: 1 -->
<svg width="345pt" height="241pt"
 viewBox="0.00 0.00 345.09 241.00" xmlns="http://www.w3.org/2000/svg" xmlns:xlink="http://www.w3.org/1999/xlink">
<g id="graph0" class="graph" transform="scale(1 1) rotate(0) translate(4 237)">
<title>jsonv</title>
<polygon fill="#ffffff" stroke="transparent" points="-4,4 -4,-237 341.0911,-237 341.0911,4 -4,4"/>
<text text-anchor="middle" x="168.5456" y="-217.8" font-family="Times,serif" font-size="14.00" fill="#000000">Conversions</text>
<!-- str -->
<g id="node1" class="node">
<title>str</title>
<ellipse fill="none" stroke="#000000" cx="54.9452" cy="-192" rx="46.2923" ry="18"/>
<text text-anchor="middle" x="54.9452" y="-188.3" font-family="Times,serif" font-size="14.00" fill="#000000">std::string</text>
</g>
<!-- value -->
<g id="node4" class="node">
<title>value</title>
<g id="a_node4"><a xlink:href="classjsonv_1_1value.html" target="_top" xlink:title="value">
<ellipse fill="none" stroke="#000000" cx="138.9452" cy="-105" rx="29.795" ry="18"/>
<text text-anchor="middle" x="138.9452" y="-101.3" font-family="Times,serif" font-size="14.00" fill="#000000">value</text>
</a>
</g>
</g>
<!-- str&#45;&gt;value -->
<g id="edge3" class="edge">
<title>str&#45;&gt;value</title>
<g id="a_edge3"><a xlink:href="" target="_top" xlink:title="parse">
<path fill="none" stroke="#000000" d="M50.7745,-174.0472C49.3768,-163.5647 49.5345,-150.5626 55.9452,-141 65.868,-126.1985 83.2974,-117.4458 99.6309,-112.2876"/>
<polygon fill="#000000" stroke="#000000" points="100.8867,-115.5712 109.5823,-109.5184 99.01,-108.8274 100.8867,-115.5712"/>
</a>
</g>
<g id="a_edge3&#45;label"><a xlink:href="" target="_top" xlink:title="parse">
<text text-anchor="middle" x="70.4452" y="-144.8" font-family="Times,serif" font-size="14.00" fill="#000000">parse</text>
</a>
</g>
</g>
<!-- istream -->
<g id="node2" class="node">
<title>istream</title>
<ellipse fill="none" stroke="#000000" cx="174.9452" cy="-192" rx="51.9908" ry="18"/>
<text text-anchor="middle" x="174.9452" y="-188.3" font-family="Times,serif" font-size="14.00" fill="#000000">std::istream</text>
</g>
<!-- istream&#45;&gt;value -->
<g id="edge4" class="edge">
<title>istream&#45;&gt;value</title>
<g id="a_edge4"><a xlink:href="" target="_top" xlink:title="parse">
<path fill="none" stroke="#000000" d="M167.486,-173.9735C162.4811,-161.8784 155.7975,-145.7263 150.1563,-132.0934"/>
<polygon fill="#000000" stroke="#000000" points="153.3293,-130.6076 146.2717,-122.7057 146.8612,-133.2841 153.3293,-130.6076"/>
</a>
</g>
<g id="a_edge4&#45;label"><a xlink:href="" target="_top" xlink:title="parse">
<text text-anchor="middle" x="173.4452" y="-144.8" font-family="Times,serif" font-size="14.00" fill="#000000">parse</text>
</a>
</g>
</g>
<!-- ostream -->
<g id="node3" class="node">
<title>ostream</title>
<ellipse fill="none" stroke="#000000" cx="53.9452" cy="-18" rx="53.8905" ry="18"/>
<text text-anchor="middle" x="53.9452" y="-14.3" font-family="Times,serif" font-size="14.00" fill="#000000">std::ostream</text>
</g>
<!-- value&#45;&gt;str -->
<g id="edge1" class="edge">
<title>value&#45;&gt;str</title>
<g id="a_edge1"><a xlink:href="" target="_top" xlink:title="to_string">
<path fill="none" stroke="#000000" d="M122.4013,-120.1411C115.634,-126.4707 107.7998,-133.9755 100.9452,-141 92.8676,-149.2779 84.307,-158.6047 76.7893,-166.9972"/>
<polygon fill="#000000" stroke="#000000" points="73.9772,-164.8926 69.9508,-174.6925 79.2097,-169.5424 73.9772,-164.8926"/>
</a>
</g>
<g id="a_edge1&#45;label"><a xlink:href="" target="_top" xlink:title="to_string">
<text text-anchor="middle" x="125.4452" y="-144.8" font-family="Times,serif" font-size="14.00" fill="#000000">to_string</text>
</a>
</g>
</g>
<!-- value&#45;&gt;ostream -->
<g id="edge2" class="edge">
<title>value&#45;&gt;ostream</title>
<path fill="none" stroke="#000000" d="M111.96,-96.9778C97.319,-91.3396 80.0049,-82.3752 68.9452,-69 63.5694,-62.4987 60.1202,-54.1381 57.9071,-46.0748"/>
<polygon fill="#000000" stroke="#000000" points="61.2954,-45.1875 55.713,-36.1826 54.4615,-46.7033 61.2954,-45.1875"/>
<text text-anchor="middle" x="99.9452" y="-57.8" font-family="Times,serif" font-size="14.00" fill="#000000">operator&lt;&lt;</text>
</g>
<!-- value&#45;&gt;value -->
<g id="edge5" class="edge">
<title>value&#45;&gt;value</title>
<path fill="none" stroke="#000000" d="M166.0269,-112.8058C177.2927,-113.3441 186.8426,-110.7422 186.8426,-105 186.8426,-101.142 182.5316,-98.7015 176.2857,-97.6786"/>
<polygon fill="#000000" stroke="#000000" points="176.1809,-94.1698 166.0269,-97.1942 175.8506,-101.162 176.1809,-94.1698"/>
<text text-anchor="middle" x="242.8426" y="-101.3" font-family="Times,serif" font-size="14.00" fill="#000000">map, merge, diff, ...</text>
</g>
<!-- class -->
<g id="node5" class="node">
<title>class</title>
<ellipse fill="none" stroke="#000000" cx="185.9452" cy="-18" rx="46.5926" ry="18"/>
<text text-anchor="middle" x="185.9452" y="-14.3" font-family="Times,serif" font-size="14.00" fill="#000000">C++ class</text>
</g>
<!-- value&#45;&gt;class -->
<g id="edge6" class="edge">
<title>value&#45;&gt;class</title>
<g id="a_edge6"><a xlink:href="" target="_top" xlink:title="extract">
<path fill="none" stroke="#000000" d="M135.6467,-87.1059C134.6306,-76.8912 134.8806,-64.1412 139.9452,-54 142.6737,-48.5366 146.6638,-43.6516 151.1711,-39.375"/>
<polygon fill="#000000" stroke="#000000" points="153.6709,-41.848 159.1134,-32.7578 149.1901,-36.47 153.6709,-41.848"/>
</a>
</g>
<g id="a_edge6&#45;label"><a xlink:href="" target="_top" xlink:title="extract">
<text text-anchor="middle" x="158.4452" y="-57.8" font-family="Times,serif" font-size="14.00" fill="#000000">extract</text>
</a>
</g>
</g>
<!-- class&#45;&gt;value -->
<g id="edge7" class="edge">
<title>class&#45;&gt;value</title>
<g id="a_edge7"><a xlink:href="" target="_top" xlink:title="to_json">
<path fill="none" stroke="#000000" d="M185.4917,-36.3795C184.5763,-46.5128 182.3122,-59.0233 176.9452,-69 174.0216,-74.4346 169.9753,-79.5191 165.6076,-84.0569"/>
<polygon fill="#000000" stroke="#000000" points="162.9682,-81.735 158.095,-91.1426 167.7713,-86.8273 162.9682,-81.735"/>
</a>
</g>
<g id="a_edge7&#45;label"><a xlink:href="" target="_top" xlink:title="to_json">
<text text-anchor="middle" x="201.9452" y="-57.8" font-family="Times,serif" font-size="14.00" fill="#000000">to_json</text>
</a>
</g>
</g>
<!-- dsl -->
<g id="node6" class="node">
<title>dsl</title>
<ellipse fill="none" stroke="#000000" cx="290.9452" cy="-192" rx="46.2923" ry="18"/>
<text text-anchor="middle" x="290.9452" y="-188.3" font-family="Times,serif" font-size="14.00" fill="#000000">C++ DSL</text>
</g>
<!-- dsl&#45;&gt;value -->
<g id="edge8" class="edge">
<title>dsl&#45;&gt;value</title>
<path fill="none" stroke="#000000" d="M264.8155,-177.0442C238.4294,-161.9416 197.6846,-138.6205 169.7433,-122.6279"/>
<polygon fill="#000000" stroke="#000000" points="171.2153,-119.4376 160.7977,-117.5077 167.7379,-125.5129 171.2153,-119.4376"/>
<text text-anchor="middle" x="276.9452" y="-144.8" font-family="Times,serif" font-size="14.00" fill="#000000">value, object, array</text>
</g>
</g>
</svg>
