<?xml version="1.0" encoding="UTF-8" standalone="no"?>
<!DOCTYPE svg PUBLIC "-//W3C//DTD SVG 1.1//EN"
 "http://www.w3.org/Graphics/SVG/1.1/DTD/svg11.dtd">
<!-- Generated by graphviz version 2.40.1 (20161225.0304)
 -->
<!-- Title: formats Pages: 1 -->
<svg width="459pt" height="188pt"
 viewBox="0.00 0.00 459.49 188.00" xmlns="http://www.w3.org/2000/svg" xmlns:xlink="http://www.w3.org/1999/xlink">
<g id="graph0" class="graph" transform="scale(1 1) rotate(0) translate(4 184)">
<title>formats</title>
<polygon fill="#ffffff" stroke="transparent" points="-4,4 -4,-184 455.4879,-184 455.4879,4 -4,4"/>
<!-- defaults -->
<g id="node1" class="node">
<title>defaults</title>
<ellipse fill="none" stroke="#000000" cx="70.8437" cy="-90" rx="70.6878" ry="18"/>
<text text-anchor="middle" x="70.8437" y="-86.3" font-family="Times,serif" font-size="14.00" fill="#000000">formats::defaults</text>
</g>
<!-- coerce -->
<g id="node2" class="node">
<title>coerce</title>
<ellipse fill="none" stroke="#000000" cx="385.8437" cy="-90" rx="65.7887" ry="18"/>
<text text-anchor="middle" x="385.8437" y="-86.3" font-family="Times,serif" font-size="14.00" fill="#000000">formats::coerce</text>
</g>
<!-- lib -->
<g id="node3" class="node">
<title>lib</title>
<ellipse fill="none" stroke="#000000" cx="230.8437" cy="-18" rx="68.4888" ry="18"/>
<text text-anchor="middle" x="230.8437" y="-14.3" font-family="Times,serif" font-size="14.00" fill="#000000">some_3rd_party</text>
</g>
<!-- my_app -->
<g id="node4" class="node">
<title>my_app</title>
<ellipse fill="none" stroke="#000000" cx="230.8437" cy="-90" rx="71.4873" ry="18"/>
<text text-anchor="middle" x="230.8437" y="-86.3" font-family="Times,serif" font-size="14.00" fill="#000000">my_app_formats</text>
</g>
<!-- my_app&#45;&gt;lib -->
<g id="edge1" class="edge">
<title>my_app&#45;&gt;lib</title>
<path fill="none" stroke="#000000" d="M230.8437,-71.8314C230.8437,-64.131 230.8437,-54.9743 230.8437,-46.4166"/>
<polygon fill="#000000" stroke="#000000" points="234.3438,-46.4132 230.8437,-36.4133 227.3438,-46.4133 234.3438,-46.4132"/>
</g>
<!-- db -->
<g id="node5" class="node">
<title>db</title>
<ellipse fill="none" stroke="#000000" cx="127.8437" cy="-162" rx="100.9827" ry="18"/>
<text text-anchor="middle" x="127.8437" y="-158.3" font-family="Times,serif" font-size="14.00" fill="#000000">my_app_database_loader</text>
</g>
<!-- db&#45;&gt;defaults -->
<g id="edge2" class="edge">
<title>db&#45;&gt;defaults</title>
<path fill="none" stroke="#000000" d="M113.4602,-143.8314C106.7941,-135.411 98.7496,-125.2495 91.4538,-116.0338"/>
<polygon fill="#000000" stroke="#000000" points="93.9764,-113.5814 85.0252,-107.9134 88.4881,-117.9264 93.9764,-113.5814"/>
</g>
<!-- db&#45;&gt;my_app -->
<g id="edge3" class="edge">
<title>db&#45;&gt;my_app</title>
<path fill="none" stroke="#000000" d="M153.0403,-144.3868C166.6816,-134.8512 183.6885,-122.9629 198.3198,-112.7352"/>
<polygon fill="#000000" stroke="#000000" points="200.4257,-115.5335 206.6165,-106.9355 196.4151,-109.7962 200.4257,-115.5335"/>
</g>
<!-- api -->
<g id="node6" class="node">
<title>api</title>
<ellipse fill="none" stroke="#000000" cx="356.8437" cy="-162" rx="81.4863" ry="18"/>
<text text-anchor="middle" x="356.8437" y="-158.3" font-family="Times,serif" font-size="14.00" fill="#000000">my_app_api_loader</text>
</g>
<!-- api&#45;&gt;coerce -->
<g id="edge4" class="edge">
<title>api&#45;&gt;coerce</title>
<path fill="none" stroke="#000000" d="M364.1616,-143.8314C367.3801,-135.8406 371.2302,-126.2819 374.7869,-117.4514"/>
<polygon fill="#000000" stroke="#000000" points="378.139,-118.4969 378.6286,-107.9134 371.6459,-115.8816 378.139,-118.4969"/>
</g>
<!-- api&#45;&gt;my_app -->
<g id="edge5" class="edge">
<title>api&#45;&gt;my_app</title>
<path fill="none" stroke="#000000" d="M327.3023,-145.1192C309.7998,-135.1177 287.4435,-122.3427 268.6616,-111.6102"/>
<polygon fill="#000000" stroke="#000000" points="270.1844,-108.4493 259.7655,-106.5267 266.7114,-114.527 270.1844,-108.4493"/>
</g>
</g>
</svg>
