<?xml version="1.0" encoding="UTF-8" standalone="no"?>
<!DOCTYPE svg PUBLIC "-//W3C//DTD SVG 1.1//EN"
 "http://www.w3.org/Graphics/SVG/1.1/DTD/svg11.dtd">
<!-- Generated by graphviz version 2.40.1 (20161225.0304)
 -->
<!-- Title: jsonv Pages: 1 -->
<svg width="353pt" height="241pt"
 viewBox="0.00 0.00 352.69 241.00" xmlns="http://www.w3.org/2000/svg" xmlns:xlink="http://www.w3.org/1999/xlink">
<g id="graph0" class="graph" transform="scale(1 1) rotate(0) translate(4 237)">
<title>jsonv</title>
<polygon fill="#ffffff" stroke="transparent" points="-4,4 -4,-237 348.6909,-237 348.6909,4 -4,4"/>
<text text-anchor="middle" x="172.3454" y="-217.8" font-family="Times,serif" font-size="14.00" fill="#000000">Conversions</text>
<!-- str -->
<g id="node1" class="node">
<title>str</title>
<ellipse fill="none" stroke="#000000" cx="57.895" cy="-192" rx="46.5926" ry="18"/>
<text text-anchor="middle" x="57.895" y="-188.3" font-family="Times,serif" font-size="14.00" fill="#000000">std::string</text>
</g>
<!-- value -->
<g id="node4" class="node">
<title>value</title>
<g id="a_node4"><a xlink:href="classjsonv_1_1value.html" target="_top" xlink:title="value">
<ellipse fill="none" stroke="#000000" cx="142.895" cy="-105" rx="30.5947" ry="18"/>
<text text-anchor="middle" x="142.895" y="-101.3" font-family="Times,serif" font-size="14.00" fill="#000000">value</text>
</a>
</g>
</g>
<!-- str&#45;&gt;value -->
<g id="edge3" class="edge">
<title>str&#45;&gt;value</title>
<g id="a_edge3"><a xlink:href="" target="_top" xlink:title="parse">
<path fill="none" stroke="#000000" d="M53.2752,-174.0713C51.6375,-163.5974 51.5382,-150.5958 57.895,-141 68.1051,-125.5877 86.3735,-116.7555 103.3645,-111.7027"/>
<polygon fill="#000000" stroke="#000000" points="104.3615,-115.0598 113.1504,-109.1433 102.5902,-108.2876 104.3615,-115.0598"/>
</a>
</g>
<g id="a_edge3&#45;label"><a xlink:href="" target="_top" xlink:title="parse">
<text text-anchor="middle" x="72.895" y="-144.8" font-family="Times,serif" font-size="14.00" fill="#000000">parse</text>
</a>
</g>
</g>
<!-- istream -->
<g id="node2" class="node">
<title>istream</title>
<ellipse fill="none" stroke="#000000" cx="179.895" cy="-192" rx="53.0913" ry="18"/>
<text text-anchor="middle" x="179.895" y="-188.3" font-family="Times,serif" font-size="14.00" fill="#000000">std::istream</text>
</g>
<!-- istream&#45;&gt;value -->
<g id="edge4" class="edge">
<title>istream&#45;&gt;value</title>
<g id="a_edge4"><a xlink:href="" target="_top" xlink:title="parse">
<path fill="none" stroke="#000000" d="M172.2286,-173.9735C167.0847,-161.8784 160.2154,-145.7263 154.4175,-132.0934"/>
<polygon fill="#000000" stroke="#000000" points="157.5596,-130.5383 150.425,-122.7057 151.1179,-133.2779 157.5596,-130.5383"/>
</a>
</g>
<g id="a_edge4&#45;label"><a xlink:href="" target="_top" xlink:title="parse">
<text text-anchor="middle" x="177.895" y="-144.8" font-family="Times,serif" font-size="14.00" fill="#000000">parse</text>
</a>
</g>
</g>
<!-- ostream -->
<g id="node3" class="node">
<title>ostream</title>
<ellipse fill="none" stroke="#000000" cx="55.895" cy="-18" rx="55.7903" ry="18"/>
<text text-anchor="middle" x="55.895" y="-14.3" font-family="Times,serif" font-size="14.00" fill="#000000">std::ostream</text>
</g>
<!-- value&#45;&gt;str -->
<g id="edge1" class="edge">
<title>value&#45;&gt;str</title>
<g id="a_edge1"><a xlink:href="" target="_top" xlink:title="to_string">
<path fill="none" stroke="#000000" d="M126.3887,-120.178C119.6272,-126.5133 111.7871,-134.0123 104.895,-141 96.609,-149.401 87.7793,-158.8438 80.0365,-167.2997"/>
<polygon fill="#000000" stroke="#000000" points="77.4179,-164.977 73.2781,-174.7296 82.5961,-169.6872 77.4179,-164.977"/>
</a>
</g>
<g id="a_edge1&#45;label"><a xlink:href="" target="_top" xlink:title="to_string">
<text text-anchor="middle" x="129.895" y="-144.8" font-family="Times,serif" font-size="14.00" fill="#000000">to_string</text>
</a>
</g>
</g>
<!-- value&#45;&gt;ostream -->
<g id="edge2" class="edge">
<title>value&#45;&gt;ostream</title>
<path fill="none" stroke="#000000" d="M115.148,-97.1596C100.0917,-91.5801 82.2829,-82.6138 70.895,-69 65.4824,-62.5293 62.0226,-54.1775 59.8112,-46.1128"/>
<polygon fill="#000000" stroke="#000000" points="63.1993,-45.224 57.6248,-36.2143 56.3641,-46.7339 63.1993,-45.224"/>
<text text-anchor="middle" x="102.895" y="-57.8" font-family="Times,serif" font-size="14.00" fill="#000000">operator&lt;&lt;</text>
</g>
<!-- value&#45;&gt;value -->
<g id="edge5" class="edge">
<title>value&#45;&gt;value</title>
<path fill="none" stroke="#000000" d="M170.8325,-112.8269C182.0375,-113.2691 191.4423,-110.6602 191.4423,-105 191.4423,-101.1971 187.1968,-98.7715 181.0123,-97.7233"/>
<polygon fill="#000000" stroke="#000000" points="181.0068,-94.218 170.8325,-97.1731 180.629,-101.2078 181.0068,-94.218"/>
<text text-anchor="middle" x="247.9423" y="-101.3" font-family="Times,serif" font-size="14.00" fill="#000000">map, merge, diff, ...</text>
</g>
<!-- class -->
<g id="node5" class="node">
<title>class</title>
<ellipse fill="none" stroke="#000000" cx="190.895" cy="-18" rx="48.1917" ry="18"/>
<text text-anchor="middle" x="190.895" y="-14.3" font-family="Times,serif" font-size="14.00" fill="#000000">C++ class</text>
</g>
<!-- value&#45;&gt;class -->
<g id="edge6" class="edge">
<title>value&#45;&gt;class</title>
<g id="a_edge6"><a xlink:href="" target="_top" xlink:title="extract">
<path fill="none" stroke="#000000" d="M139.557,-87.086C138.5277,-76.8647 138.7777,-64.1147 143.895,-54 146.6298,-48.5946 150.5965,-43.7701 155.0829,-39.5453"/>
<polygon fill="#000000" stroke="#000000" points="157.5187,-42.073 162.9982,-33.0051 153.0599,-36.6767 157.5187,-42.073"/>
</a>
</g>
<g id="a_edge6&#45;label"><a xlink:href="" target="_top" xlink:title="extract">
<text text-anchor="middle" x="163.395" y="-57.8" font-family="Times,serif" font-size="14.00" fill="#000000">extract</text>
</a>
</g>
</g>
<!-- class&#45;&gt;value -->
<g id="edge7" class="edge">
<title>class&#45;&gt;value</title>
<g id="a_edge7"><a xlink:href="" target="_top" xlink:title="to_json">
<path fill="none" stroke="#000000" d="M190.965,-36.4174C190.2993,-46.5626 188.2772,-59.0724 182.895,-69 179.7976,-74.7135 175.43,-79.98 170.7112,-84.6207"/>
<polygon fill="#000000" stroke="#000000" points="168.2737,-82.1047 163.1391,-91.3722 172.9323,-87.3295 168.2737,-82.1047"/>
</a>
</g>
<g id="a_edge7&#45;label"><a xlink:href="" target="_top" xlink:title="to_json">
<text text-anchor="middle" x="209.395" y="-57.8" font-family="Times,serif" font-size="14.00" fill="#000000">to_json</text>
</a>
</g>
</g>
<!-- dsl -->
<g id="node6" class="node">
<title>dsl</title>
<ellipse fill="none" stroke="#000000" cx="297.895" cy="-192" rx="46.5926" ry="18"/>
<text text-anchor="middle" x="297.895" y="-188.3" font-family="Times,serif" font-size="14.00" fill="#000000">C++ DSL</text>
</g>
<!-- dsl&#45;&gt;value -->
<g id="edge8" class="edge">
<title>dsl&#45;&gt;value</title>
<path fill="none" stroke="#000000" d="M271.2496,-177.0442C244.2258,-161.876 202.4321,-138.4176 173.9301,-122.4197"/>
<polygon fill="#000000" stroke="#000000" points="175.6122,-119.3502 165.1788,-117.5077 172.1859,-125.4544 175.6122,-119.3502"/>
<text text-anchor="middle" x="283.895" y="-144.8" font-family="Times,serif" font-size="14.00" fill="#000000">value, object, array</text>
</g>
</g>
</svg>
